<?xml version="1.0" encoding="UTF-8" standalone="no"?>
<!DOCTYPE svg PUBLIC "-//W3C//DTD SVG 1.1//EN"
 "http://www.w3.org/Graphics/SVG/1.1/DTD/svg11.dtd">
<!-- Generated by graphviz version 2.44.0 (20200408.0750)
 -->
<!-- Title: Flow Pages: 1 -->
<svg width="717pt" height="168pt"
 viewBox="0.00 0.00 717.00 168.00" xmlns="http://www.w3.org/2000/svg" xmlns:xlink="http://www.w3.org/1999/xlink">
<g id="graph0" class="graph" transform="scale(1 1) rotate(0) translate(36 132)">
<title>Flow</title>
<polygon fill="white" stroke="transparent" points="-36,36 -36,-132 681,-132 681,36 -36,36"/>
<!-- d0 -->
<g id="node1" class="node">
<title>d0</title>
<ellipse fill="none" stroke="black" cx="3.5" cy="-48" rx="3.5" ry="3.5"/>
</g>
<!-- d1 -->
<g id="node2" class="node">
<title>d1</title>
<path fill="none" stroke="black" d="M153,-66C153,-66 123,-66 123,-66 117,-66 111,-60 111,-54 111,-54 111,-42 111,-42 111,-36 117,-30 123,-30 123,-30 153,-30 153,-30 159,-30 165,-36 165,-42 165,-42 165,-54 165,-54 165,-60 159,-66 153,-66"/>
<text text-anchor="middle" x="138" y="-44.3" font-family="Times,serif" font-size="14.00">OSS</text>
</g>
<!-- d0&#45;&gt;d1 -->
<g id="edge1" class="edge">
<title>d0&#45;&gt;d1</title>
<path fill="none" stroke="black" d="M7.27,-48C19.12,-48 66.57,-48 100.65,-48"/>
<polygon fill="black" stroke="black" points="100.74,-51.5 110.74,-48 100.74,-44.5 100.74,-51.5"/>
<text text-anchor="middle" x="59" y="-51.2" font-family="STKaiti" font-size="11.00">上传训练语料</text>
</g>
<!-- dd -->
<g id="node3" class="node">
<title>dd</title>
<path fill="none" stroke="black" d="M317,-66C317,-66 282,-66 282,-66 276,-66 270,-60 270,-54 270,-54 270,-42 270,-42 270,-36 276,-30 282,-30 282,-30 317,-30 317,-30 323,-30 329,-36 329,-42 329,-42 329,-54 329,-54 329,-60 323,-66 317,-66"/>
<text text-anchor="middle" x="299.5" y="-44.3" font-family="Times,serif" font-size="14.00">数据集</text>
</g>
<!-- d1&#45;&gt;dd -->
<g id="edge2" class="edge">
<title>d1&#45;&gt;dd</title>
<path fill="none" stroke="black" d="M165.34,-48C191.03,-48 230.4,-48 259.68,-48"/>
<polygon fill="black" stroke="black" points="259.97,-51.5 269.97,-48 259.97,-44.5 259.97,-51.5"/>
<text text-anchor="middle" x="217.5" y="-51.2" font-family="STKaiti" font-size="11.00">语料文本 URL</text>
</g>
<!-- model -->
<g id="node4" class="node">
<title>model</title>
<path fill="none" stroke="black" d="M474,-66C474,-66 444,-66 444,-66 438,-66 432,-60 432,-54 432,-54 432,-42 432,-42 432,-36 438,-30 444,-30 444,-30 474,-30 474,-30 480,-30 486,-36 486,-42 486,-42 486,-54 486,-54 486,-60 480,-66 474,-66"/>
<text text-anchor="middle" x="459" y="-44.3" font-family="Times,serif" font-size="14.00">模型</text>
</g>
<!-- dd&#45;&gt;model -->
<g id="edge3" class="edge">
<title>dd&#45;&gt;model</title>
<path fill="none" stroke="black" d="M329.02,-48C354.96,-48 393.38,-48 421.54,-48"/>
<polygon fill="black" stroke="black" points="421.78,-51.5 431.78,-48 421.78,-44.5 421.78,-51.5"/>
<text text-anchor="middle" x="380.5" y="-51.2" font-family="STKaiti" font-size="11.00">数据集 DataId</text>
</g>
<!-- model&#45;&gt;model -->
<g id="edge4" class="edge">
<title>model&#45;&gt;model</title>
<path fill="none" stroke="black" d="M446.7,-66.15C444.81,-75.54 448.91,-84 459,-84 465.15,-84 469.08,-80.86 470.78,-76.28"/>
<polygon fill="black" stroke="black" points="474.28,-76.32 471.3,-66.15 467.29,-75.96 474.28,-76.32"/>
<text text-anchor="middle" x="459" y="-87.2" font-family="STKaiti" font-size="11.00">训练|上线</text>
</g>
<!-- model&#45;&gt;model -->
<g id="edge5" class="edge">
<title>model:s&#45;&gt;model</title>
<path fill="none" stroke="black" d="M459,-30C442,-24 442,-12 459,-12 465.15,-12 469.08,-15.14 470.78,-19.72"/>
<polygon fill="black" stroke="black" points="467.29,-20.04 471.3,-29.85 474.28,-19.68 467.29,-20.04"/>
<text text-anchor="middle" x="459" y="-3.2" font-family="STKaiti" font-size="11.00">(删除|添加)新数据集</text>
</g>
<!-- app -->
<g id="node5" class="node">
<title>app</title>
<path fill="none" stroke="black" d="M633,-66C633,-66 580,-66 580,-66 574,-66 568,-60 568,-54 568,-54 568,-42 568,-42 568,-36 574,-30 580,-30 580,-30 633,-30 633,-30 639,-30 645,-36 645,-42 645,-42 645,-54 645,-54 645,-60 639,-66 633,-66"/>
<text text-anchor="middle" x="606.5" y="-44.3" font-family="Times,serif" font-size="14.00">项目(App)</text>
</g>
<!-- model&#45;&gt;app -->
<g id="edge6" class="edge">
<title>model&#45;&gt;app</title>
<path fill="none" stroke="black" d="M486.01,-48C505.88,-48 533.81,-48 557.67,-48"/>
<polygon fill="black" stroke="black" points="557.95,-51.5 567.95,-48 557.95,-44.5 557.95,-51.5"/>
<text text-anchor="middle" x="527" y="-51.2" font-family="STKaiti" font-size="11.00">绑定项目</text>
</g>
</g>
</svg>
