<?xml version="1.0" encoding="UTF-8" standalone="no"?>
<!DOCTYPE svg PUBLIC "-//W3C//DTD SVG 1.1//EN"
 "http://www.w3.org/Graphics/SVG/1.1/DTD/svg11.dtd">
<!-- Generated by graphviz version 2.44.0 (20200408.0750)
 -->
<!-- Title: Flow Pages: 1 -->
<svg width="717pt" height="191pt"
 viewBox="0.00 0.00 717.00 191.00" xmlns="http://www.w3.org/2000/svg" xmlns:xlink="http://www.w3.org/1999/xlink">
<g id="graph0" class="graph" transform="scale(1 1) rotate(0) translate(36 155)">
<title>Flow</title>
<polygon fill="white" stroke="transparent" points="-36,36 -36,-155 681,-155 681,36 -36,36"/>
<text text-anchor="middle" x="322.5" y="-7.8" font-family="Times,serif" font-size="14.00">阿里云学习模型定制流程图</text>
<!-- d0 -->
<g id="node1" class="node">
<title>d0</title>
<ellipse fill="none" stroke="black" cx="3.5" cy="-71" rx="3.5" ry="3.5"/>
</g>
<!-- d1 -->
<g id="node2" class="node">
<title>d1</title>
<path fill="none" stroke="black" d="M153,-89C153,-89 123,-89 123,-89 117,-89 111,-83 111,-77 111,-77 111,-65 111,-65 111,-59 117,-53 123,-53 123,-53 153,-53 153,-53 159,-53 165,-59 165,-65 165,-65 165,-77 165,-77 165,-83 159,-89 153,-89"/>
<text text-anchor="middle" x="138" y="-67.3" font-family="Times,serif" font-size="14.00">OSS</text>
</g>
<!-- d0&#45;&gt;d1 -->
<g id="edge1" class="edge">
<title>d0&#45;&gt;d1</title>
<path fill="none" stroke="black" d="M7.27,-71C19.12,-71 66.57,-71 100.65,-71"/>
<polygon fill="black" stroke="black" points="100.74,-74.5 110.74,-71 100.74,-67.5 100.74,-74.5"/>
<text text-anchor="middle" x="59" y="-74.2" font-family="STKaiti" font-size="11.00">上传训练语料</text>
</g>
<!-- dd -->
<g id="node3" class="node">
<title>dd</title>
<path fill="none" stroke="black" d="M317,-89C317,-89 282,-89 282,-89 276,-89 270,-83 270,-77 270,-77 270,-65 270,-65 270,-59 276,-53 282,-53 282,-53 317,-53 317,-53 323,-53 329,-59 329,-65 329,-65 329,-77 329,-77 329,-83 323,-89 317,-89"/>
<text text-anchor="middle" x="299.5" y="-67.3" font-family="Times,serif" font-size="14.00">数据集</text>
</g>
<!-- d1&#45;&gt;dd -->
<g id="edge2" class="edge">
<title>d1&#45;&gt;dd</title>
<path fill="none" stroke="black" d="M165.34,-71C191.03,-71 230.4,-71 259.68,-71"/>
<polygon fill="black" stroke="black" points="259.97,-74.5 269.97,-71 259.97,-67.5 259.97,-74.5"/>
<text text-anchor="middle" x="217.5" y="-74.2" font-family="STKaiti" font-size="11.00">语料文本 URL</text>
</g>
<!-- model -->
<g id="node4" class="node">
<title>model</title>
<path fill="none" stroke="black" d="M474,-89C474,-89 444,-89 444,-89 438,-89 432,-83 432,-77 432,-77 432,-65 432,-65 432,-59 438,-53 444,-53 444,-53 474,-53 474,-53 480,-53 486,-59 486,-65 486,-65 486,-77 486,-77 486,-83 480,-89 474,-89"/>
<text text-anchor="middle" x="459" y="-67.3" font-family="Times,serif" font-size="14.00">模型</text>
</g>
<!-- dd&#45;&gt;model -->
<g id="edge3" class="edge">
<title>dd&#45;&gt;model</title>
<path fill="none" stroke="black" d="M329.02,-71C354.96,-71 393.38,-71 421.54,-71"/>
<polygon fill="black" stroke="black" points="421.78,-74.5 431.78,-71 421.78,-67.5 421.78,-74.5"/>
<text text-anchor="middle" x="380.5" y="-74.2" font-family="STKaiti" font-size="11.00">数据集 DataId</text>
</g>
<!-- model&#45;&gt;model -->
<g id="edge4" class="edge">
<title>model&#45;&gt;model</title>
<path fill="none" stroke="black" d="M446.7,-89.15C444.81,-98.54 448.91,-107 459,-107 465.15,-107 469.08,-103.86 470.78,-99.28"/>
<polygon fill="black" stroke="black" points="474.28,-99.32 471.3,-89.15 467.29,-98.96 474.28,-99.32"/>
<text text-anchor="middle" x="459" y="-110.2" font-family="STKaiti" font-size="11.00">训练|上线</text>
</g>
<!-- model&#45;&gt;model -->
<g id="edge5" class="edge">
<title>model:s&#45;&gt;model</title>
<path fill="none" stroke="black" d="M459,-53C442,-47 442,-35 459,-35 465.15,-35 469.08,-38.14 470.78,-42.72"/>
<polygon fill="black" stroke="black" points="467.29,-43.04 471.3,-52.85 474.28,-42.68 467.29,-43.04"/>
<text text-anchor="middle" x="459" y="-26.2" font-family="STKaiti" font-size="11.00">(删除|添加)新数据集</text>
</g>
<!-- app -->
<g id="node5" class="node">
<title>app</title>
<path fill="none" stroke="black" d="M633,-89C633,-89 580,-89 580,-89 574,-89 568,-83 568,-77 568,-77 568,-65 568,-65 568,-59 574,-53 580,-53 580,-53 633,-53 633,-53 639,-53 645,-59 645,-65 645,-65 645,-77 645,-77 645,-83 639,-89 633,-89"/>
<text text-anchor="middle" x="606.5" y="-67.3" font-family="Times,serif" font-size="14.00">项目(App)</text>
</g>
<!-- model&#45;&gt;app -->
<g id="edge6" class="edge">
<title>model&#45;&gt;app</title>
<path fill="none" stroke="black" d="M486.01,-71C505.88,-71 533.81,-71 557.67,-71"/>
<polygon fill="black" stroke="black" points="557.95,-74.5 567.95,-71 557.95,-67.5 557.95,-74.5"/>
<text text-anchor="middle" x="527" y="-74.2" font-family="STKaiti" font-size="11.00">绑定项目</text>
</g>
</g>
</svg>
