<?xml version="1.0" encoding="UTF-8" standalone="no"?>
<!DOCTYPE svg PUBLIC "-//W3C//DTD SVG 1.1//EN"
 "http://www.w3.org/Graphics/SVG/1.1/DTD/svg11.dtd">
<!-- Generated by graphviz version 2.44.0 (20200408.0750)
 -->
<!-- Title: Flow Pages: 1 -->
<svg width="737pt" height="191pt"
 viewBox="0.00 0.00 737.17 191.00" xmlns="http://www.w3.org/2000/svg" xmlns:xlink="http://www.w3.org/1999/xlink">
<g id="graph0" class="graph" transform="scale(1 1) rotate(0) translate(36 155)">
<title>Flow</title>
<polygon fill="white" stroke="transparent" points="-36,36 -36,-155 701.17,-155 701.17,36 -36,36"/>
<text text-anchor="middle" x="332.58" y="-7.8" font-family="Times,serif" font-size="14.00">阿里云学习模型定制流程图</text>
<!-- d0 -->
<g id="node1" class="node">
<title>d0</title>
<ellipse fill="none" stroke="black" cx="3.5" cy="-71" rx="3.5" ry="3.5"/>
</g>
<!-- d1 -->
<g id="node2" class="node">
<title>d1</title>
<path fill="none" stroke="black" d="M170.54,-78.94C170.54,-78.94 150.21,-86.63 150.21,-86.63 147.08,-87.81 140.8,-87.81 137.66,-86.63 137.66,-86.63 117.34,-78.94 117.34,-78.94 114.2,-77.75 111.07,-73.21 111.07,-69.85 111.07,-69.85 111.08,-63.15 111.08,-63.15 111.09,-59.79 114.45,-56.44 117.8,-56.44 117.8,-56.44 170.08,-56.44 170.08,-56.44 173.43,-56.44 176.79,-59.79 176.79,-63.15 176.79,-63.15 176.8,-69.85 176.8,-69.85 176.81,-73.21 173.68,-77.75 170.54,-78.94"/>
<text text-anchor="middle" x="143.94" y="-67.3" font-family="Times,serif" font-size="14.00">OSS</text>
</g>
<!-- d0&#45;&gt;d1 -->
<g id="edge1" class="edge">
<title>d0&#45;&gt;d1</title>
<path fill="none" stroke="black" d="M7.39,-71C19.3,-71 65.59,-71 100.79,-71"/>
<polygon fill="black" stroke="black" points="100.84,-74.5 110.84,-71 100.84,-67.5 100.84,-74.5"/>
<text text-anchor="middle" x="59" y="-74.2" font-family="STKaiti" font-size="11.00">上传训练语料</text>
</g>
<!-- dd -->
<g id="node3" class="node">
<title>dd</title>
<path fill="none" stroke="black" d="M340.88,-85.73C340.88,-87.53 327.65,-89 311.38,-89 295.1,-89 281.88,-87.53 281.88,-85.73 281.88,-85.73 281.88,-56.27 281.88,-56.27 281.88,-54.47 295.1,-53 311.38,-53 327.65,-53 340.88,-54.47 340.88,-56.27 340.88,-56.27 340.88,-85.73 340.88,-85.73"/>
<path fill="none" stroke="black" d="M340.88,-85.73C340.88,-83.92 327.65,-82.45 311.38,-82.45 295.1,-82.45 281.88,-83.92 281.88,-85.73"/>
<text text-anchor="middle" x="311.38" y="-67.3" font-family="Times,serif" font-size="14.00">数据集</text>
</g>
<!-- d1&#45;&gt;dd -->
<g id="edge2" class="edge">
<title>d1&#45;&gt;dd</title>
<path fill="none" stroke="black" d="M176.84,-71C203.85,-71 242.66,-71 271.49,-71"/>
<polygon fill="black" stroke="black" points="271.62,-74.5 281.62,-71 271.62,-67.5 271.62,-74.5"/>
<text text-anchor="middle" x="229.38" y="-74.2" font-family="STKaiti" font-size="11.00">语料文本 URL</text>
</g>
<!-- dd&#45;&gt;dd -->
<g id="edge4" class="edge">
<title>dd&#45;&gt;dd</title>
<path fill="none" stroke="black" d="M296.9,-89.15C294.68,-98.54 299.5,-107 311.38,-107 318.61,-107 323.23,-103.86 325.23,-99.28"/>
<polygon fill="black" stroke="black" points="328.73,-99.35 325.85,-89.15 321.75,-98.92 328.73,-99.35"/>
<text text-anchor="middle" x="311.38" y="-110.2" font-family="STKaiti" font-size="11.00">创建 | 删除</text>
</g>
<!-- model -->
<g id="node4" class="node">
<title>model</title>
<path fill="none" stroke="black" d="M478.23,-53.07C478.23,-53.07 479.53,-53.13 479.53,-53.13 479.68,-53.14 479.99,-53.16 480.14,-53.17 480.14,-53.17 481.43,-53.27 481.43,-53.27 481.58,-53.28 481.89,-53.31 482.04,-53.33 482.04,-53.33 483.3,-53.46 483.3,-53.46 483.45,-53.48 483.76,-53.51 483.91,-53.53 483.91,-53.53 485.13,-53.69 485.13,-53.69 485.29,-53.72 485.59,-53.76 485.74,-53.78 485.74,-53.78 486.93,-53.98 486.93,-53.98 487.08,-54 487.38,-54.06 487.53,-54.09 487.53,-54.09 488.67,-54.31 488.67,-54.31 488.82,-54.34 489.12,-54.4 489.27,-54.43 489.27,-54.43 490.36,-54.68 490.36,-54.68 490.51,-54.71 490.81,-54.79 490.96,-54.83 490.96,-54.83 491.99,-55.1 491.99,-55.1 492.13,-55.14 492.43,-55.22 492.58,-55.26 492.58,-55.26 493.54,-55.56 493.54,-55.56 493.69,-55.6 493.98,-55.7 494.13,-55.75 494.13,-55.75 495.03,-56.06 495.03,-56.06 495.17,-56.11 495.46,-56.22 495.6,-56.27 495.6,-56.27 496.43,-56.6 496.43,-56.6 496.58,-56.66 496.86,-56.78 497,-56.84 497,-56.84 497.76,-57.18 497.76,-57.18 497.9,-57.24 498.17,-57.38 498.31,-57.45 498.31,-57.45 498.99,-57.8 498.99,-57.8 499.13,-57.87 499.4,-58.02 499.53,-58.09 499.53,-58.09 500.14,-58.45 500.14,-58.45 500.27,-58.53 500.53,-58.69 500.65,-58.78 500.65,-58.78 501.19,-59.13 501.19,-59.13 501.31,-59.22 501.56,-59.4 501.68,-59.49 501.68,-59.49 502.14,-59.85 502.14,-59.85 502.26,-59.94 502.5,-60.14 502.61,-60.24 502.61,-60.24 503,-60.6 503,-60.6 503.11,-60.7 503.33,-60.91 503.44,-61.02 503.44,-61.02 503.76,-61.37 503.76,-61.37 503.86,-61.48 504.06,-61.71 504.16,-61.83 504.16,-61.83 504.42,-62.17 504.42,-62.17 504.52,-62.29 504.69,-62.54 504.78,-62.67 504.78,-62.67 504.98,-62.99 504.98,-62.99 505.06,-63.12 505.22,-63.39 505.29,-63.52 505.29,-63.52 505.44,-63.84 505.44,-63.84 505.51,-63.97 505.64,-64.25 505.69,-64.4 505.69,-64.4 505.81,-64.7 505.81,-64.7 505.86,-64.85 505.95,-65.14 505.99,-65.29 505.99,-65.29 506.07,-65.59 506.07,-65.59 506.11,-65.74 506.17,-66.04 506.19,-66.19 506.19,-66.19 506.24,-66.49 506.24,-66.49 506.26,-66.64 506.29,-66.95 506.29,-67.1 506.29,-67.1 506.31,-67.41 506.31,-67.41 506.31,-67.57 506.31,-67.87 506.3,-68.02 506.3,-68.02 506.28,-68.34 506.28,-68.34 506.27,-68.5 506.23,-68.8 506.21,-68.95 506.21,-68.95 506.16,-69.28 506.16,-69.28 506.13,-69.44 506.07,-69.74 506.03,-69.88 506.03,-69.88 505.94,-70.23 505.94,-70.23 505.9,-70.38 505.82,-70.67 505.77,-70.82 505.77,-70.82 505.64,-71.18 505.64,-71.18 505.59,-71.33 505.48,-71.61 505.42,-71.75 505.42,-71.75 505.25,-72.13 505.25,-72.13 505.19,-72.27 505.06,-72.55 504.99,-72.68 504.99,-72.68 504.79,-73.08 504.79,-73.08 504.71,-73.21 504.56,-73.48 504.49,-73.61 504.49,-73.61 504.24,-74.02 504.24,-74.02 504.16,-74.15 503.99,-74.41 503.91,-74.53 503.91,-74.53 503.62,-74.95 503.62,-74.95 503.54,-75.08 503.36,-75.33 503.26,-75.45 503.26,-75.45 502.94,-75.87 502.94,-75.87 502.84,-75.99 502.65,-76.23 502.55,-76.35 502.55,-76.35 502.19,-76.78 502.19,-76.78 502.09,-76.89 501.89,-77.12 501.78,-77.24 501.78,-77.24 501.38,-77.67 501.38,-77.67 501.28,-77.78 501.06,-78 500.95,-78.11 500.95,-78.11 500.52,-78.54 500.52,-78.54 500.41,-78.64 500.19,-78.86 500.07,-78.96 500.07,-78.96 499.61,-79.39 499.61,-79.39 499.49,-79.49 499.26,-79.69 499.14,-79.79 499.14,-79.79 498.65,-80.21 498.65,-80.21 498.53,-80.31 498.29,-80.5 498.17,-80.6 498.17,-80.6 497.65,-81.01 497.65,-81.01 497.52,-81.1 497.28,-81.29 497.16,-81.38 497.16,-81.38 496.61,-81.78 496.61,-81.78 496.48,-81.87 496.23,-82.05 496.1,-82.13 496.1,-82.13 495.53,-82.52 495.53,-82.52 495.41,-82.61 495.15,-82.78 495.02,-82.86 495.02,-82.86 494.43,-83.23 494.43,-83.23 494.3,-83.31 494.04,-83.47 493.91,-83.55 493.91,-83.55 493.3,-83.91 493.3,-83.91 493.17,-83.98 492.9,-84.13 492.76,-84.21 492.76,-84.21 492.14,-84.55 492.14,-84.55 492.01,-84.62 491.74,-84.76 491.6,-84.83 491.6,-84.83 490.97,-85.15 490.97,-85.15 490.83,-85.22 490.55,-85.35 490.42,-85.41 490.42,-85.41 489.77,-85.71 489.77,-85.71 489.63,-85.78 489.35,-85.9 489.21,-85.96 489.21,-85.96 488.56,-86.23 488.56,-86.23 488.42,-86.29 488.14,-86.41 487.99,-86.46 487.99,-86.46 487.34,-86.71 487.34,-86.71 487.19,-86.77 486.91,-86.87 486.76,-86.92 486.76,-86.92 486.1,-87.15 486.1,-87.15 485.96,-87.2 485.67,-87.3 485.52,-87.34 485.52,-87.34 484.86,-87.55 484.86,-87.55 484.71,-87.59 484.41,-87.68 484.27,-87.72 484.27,-87.72 483.6,-87.89 483.6,-87.89 483.45,-87.93 483.16,-88.01 483.01,-88.04 483.01,-88.04 482.34,-88.2 482.34,-88.2 482.19,-88.23 481.89,-88.29 481.74,-88.32 481.74,-88.32 481.07,-88.45 481.07,-88.45 480.92,-88.48 480.62,-88.53 480.47,-88.56 480.47,-88.56 479.8,-88.66 479.8,-88.66 479.65,-88.68 479.35,-88.72 479.19,-88.74 479.19,-88.74 478.53,-88.82 478.53,-88.82 478.37,-88.83 478.07,-88.86 477.92,-88.88 477.92,-88.88 477.25,-88.93 477.25,-88.93 477.1,-88.94 476.79,-88.96 476.64,-88.96 476.64,-88.96 475.97,-88.99 475.97,-88.99 475.82,-88.99 475.51,-89 475.36,-89 475.36,-89 474.69,-89 474.69,-89 474.54,-89 474.23,-88.99 474.08,-88.99 474.08,-88.99 473.41,-88.96 473.41,-88.96 473.26,-88.96 472.95,-88.94 472.8,-88.93 472.8,-88.93 472.13,-88.88 472.13,-88.88 471.98,-88.86 471.67,-88.83 471.52,-88.82 471.52,-88.82 470.85,-88.74 470.85,-88.74 470.7,-88.72 470.4,-88.68 470.24,-88.66 470.24,-88.66 469.58,-88.56 469.58,-88.56 469.43,-88.53 469.12,-88.48 468.97,-88.45 468.97,-88.45 468.31,-88.32 468.31,-88.32 468.16,-88.29 467.86,-88.23 467.71,-88.2 467.71,-88.2 467.04,-88.04 467.04,-88.04 466.89,-88.01 466.59,-87.93 466.45,-87.89 466.45,-87.89 465.78,-87.72 465.78,-87.72 465.63,-87.68 465.34,-87.59 465.19,-87.55 465.19,-87.55 464.53,-87.34 464.53,-87.34 464.38,-87.3 464.09,-87.2 463.94,-87.15 463.94,-87.15 463.28,-86.92 463.28,-86.92 463.14,-86.87 462.85,-86.77 462.71,-86.71 462.71,-86.71 462.05,-86.46 462.05,-86.46 461.91,-86.41 461.63,-86.29 461.48,-86.23 461.48,-86.23 460.83,-85.96 460.83,-85.96 460.69,-85.9 460.41,-85.78 460.27,-85.71 460.27,-85.71 459.63,-85.41 459.63,-85.41 459.49,-85.35 459.22,-85.22 459.08,-85.15 459.08,-85.15 458.45,-84.83 458.45,-84.83 458.31,-84.76 458.04,-84.62 457.9,-84.55 457.9,-84.55 457.28,-84.21 457.28,-84.21 457.15,-84.13 456.88,-83.98 456.75,-83.91 456.75,-83.91 456.14,-83.55 456.14,-83.55 456.01,-83.47 455.75,-83.31 455.62,-83.23 455.62,-83.23 455.03,-82.86 455.03,-82.86 454.9,-82.78 454.64,-82.61 454.51,-82.52 454.51,-82.52 453.94,-82.13 453.94,-82.13 453.81,-82.05 453.56,-81.87 453.44,-81.78 453.44,-81.78 452.89,-81.38 452.89,-81.38 452.77,-81.29 452.52,-81.1 452.4,-81.01 452.4,-81.01 451.88,-80.6 451.88,-80.6 451.76,-80.5 451.52,-80.31 451.4,-80.21 451.4,-80.21 450.9,-79.79 450.9,-79.79 450.79,-79.69 450.55,-79.49 450.44,-79.39 450.44,-79.39 449.97,-78.96 449.97,-78.96 449.86,-78.86 449.64,-78.64 449.53,-78.54 449.53,-78.54 449.09,-78.11 449.09,-78.11 448.98,-78 448.77,-77.78 448.67,-77.67 448.67,-77.67 448.27,-77.24 448.27,-77.24 448.16,-77.12 447.96,-76.89 447.86,-76.78 447.86,-76.78 447.49,-76.35 447.49,-76.35 447.39,-76.23 447.2,-75.99 447.11,-75.87 447.11,-75.87 446.78,-75.45 446.78,-75.45 446.69,-75.33 446.51,-75.08 446.42,-74.95 446.42,-74.95 446.14,-74.53 446.14,-74.53 446.05,-74.41 445.89,-74.15 445.81,-74.02 445.81,-74.02 445.56,-73.61 445.56,-73.61 445.48,-73.48 445.33,-73.21 445.26,-73.08 445.26,-73.08 445.06,-72.68 445.06,-72.68 444.99,-72.55 444.85,-72.27 444.79,-72.13 444.79,-72.13 444.63,-71.75 444.63,-71.75 444.57,-71.61 444.46,-71.33 444.41,-71.18 444.41,-71.18 444.28,-70.82 444.28,-70.82 444.23,-70.67 444.14,-70.38 444.1,-70.23 444.1,-70.23 444.02,-69.88 444.02,-69.88 443.98,-69.74 443.92,-69.44 443.89,-69.28 443.89,-69.28 443.84,-68.95 443.84,-68.95 443.81,-68.8 443.78,-68.5 443.77,-68.34 443.77,-68.34 443.75,-68.02 443.75,-68.02 443.74,-67.87 443.74,-67.57 443.74,-67.41 443.74,-67.41 443.75,-67.1 443.75,-67.1 443.76,-66.95 443.79,-66.64 443.81,-66.49 443.81,-66.49 443.85,-66.19 443.85,-66.19 443.88,-66.04 443.94,-65.74 443.98,-65.59 443.98,-65.59 444.05,-65.29 444.05,-65.29 444.09,-65.14 444.18,-64.85 444.24,-64.7 444.24,-64.7 444.36,-64.4 444.36,-64.4 444.41,-64.25 444.53,-63.97 444.6,-63.84 444.6,-63.84 444.76,-63.52 444.76,-63.52 444.83,-63.39 444.98,-63.12 445.06,-62.99 445.06,-62.99 445.27,-62.67 445.27,-62.67 445.35,-62.54 445.53,-62.29 445.63,-62.17 445.63,-62.17 445.89,-61.83 445.89,-61.83 445.98,-61.71 446.18,-61.48 446.29,-61.37 446.29,-61.37 446.61,-61.02 446.61,-61.02 446.71,-60.91 446.93,-60.7 447.05,-60.6 447.05,-60.6 447.43,-60.24 447.43,-60.24 447.55,-60.14 447.78,-59.94 447.9,-59.85 447.9,-59.85 448.36,-59.49 448.36,-59.49 448.48,-59.4 448.73,-59.22 448.86,-59.13 448.86,-59.13 449.39,-58.78 449.39,-58.78 449.52,-58.69 449.78,-58.53 449.91,-58.45 449.91,-58.45 450.52,-58.09 450.52,-58.09 450.65,-58.02 450.92,-57.87 451.06,-57.8 451.06,-57.8 451.74,-57.45 451.74,-57.45 451.87,-57.38 452.15,-57.24 452.29,-57.18 452.29,-57.18 453.05,-56.84 453.05,-56.84 453.19,-56.78 453.47,-56.66 453.61,-56.6 453.61,-56.6 454.44,-56.27 454.44,-56.27 454.59,-56.22 454.87,-56.11 455.02,-56.06 455.02,-56.06 455.92,-55.75 455.92,-55.75 456.06,-55.7 456.36,-55.6 456.5,-55.56 456.5,-55.56 457.47,-55.26 457.47,-55.26 457.62,-55.22 457.91,-55.14 458.06,-55.1 458.06,-55.1 459.09,-54.83 459.09,-54.83 459.24,-54.79 459.54,-54.71 459.69,-54.68 459.69,-54.68 460.77,-54.43 460.77,-54.43 460.92,-54.4 461.22,-54.34 461.37,-54.31 461.37,-54.31 462.51,-54.09 462.51,-54.09 462.67,-54.06 462.97,-54 463.12,-53.98 463.12,-53.98 464.31,-53.78 464.31,-53.78 464.46,-53.76 464.76,-53.72 464.91,-53.69 464.91,-53.69 466.14,-53.53 466.14,-53.53 466.29,-53.51 466.6,-53.48 466.75,-53.46 466.75,-53.46 468.01,-53.33 468.01,-53.33 468.16,-53.31 468.47,-53.28 468.62,-53.27 468.62,-53.27 469.9,-53.17 469.9,-53.17 470.06,-53.16 470.36,-53.14 470.52,-53.13 470.52,-53.13 471.82,-53.07 471.82,-53.07 471.97,-53.06 472.28,-53.05 472.43,-53.04 472.43,-53.04 473.75,-53.01 473.75,-53.01 473.9,-53 474.21,-53 474.36,-53 474.36,-53 475.68,-53 475.68,-53 475.84,-53 476.14,-53 476.3,-53.01 476.3,-53.01 477.61,-53.04 477.61,-53.04 477.77,-53.05 478.07,-53.06 478.23,-53.07"/>
<text text-anchor="middle" x="475.02" y="-67.3" font-family="Times,serif" font-size="14.00">模型</text>
</g>
<!-- dd&#45;&gt;model -->
<g id="edge3" class="edge">
<title>dd&#45;&gt;model</title>
<path fill="none" stroke="black" d="M340.9,-71C366.73,-71 405.06,-71 433.96,-71"/>
<polygon fill="black" stroke="black" points="434.14,-74.5 444.14,-71 434.14,-67.5 434.14,-74.5"/>
<text text-anchor="middle" x="392.38" y="-74.2" font-family="STKaiti" font-size="11.00">数据集 DataId</text>
</g>
<!-- model&#45;&gt;model -->
<g id="edge5" class="edge">
<title>model&#45;&gt;model</title>
<path fill="none" stroke="black" d="M462.59,-86.92C459.35,-97.15 463.49,-107 475.02,-107 482.59,-107 486.98,-102.76 488.18,-96.95"/>
<polygon fill="black" stroke="black" points="491.67,-96.64 487.46,-86.92 484.69,-97.14 491.67,-96.64"/>
<text text-anchor="middle" x="475.02" y="-110.2" font-family="STKaiti" font-size="11.00">训练|上线</text>
</g>
<!-- model&#45;&gt;model -->
<g id="edge6" class="edge">
<title>model:s&#45;&gt;model</title>
<path fill="none" stroke="black" d="M475.02,-53C457.02,-47 457.02,-35 475.02,-35 481.97,-35 486.23,-38.57 487.82,-43.65"/>
<polygon fill="black" stroke="black" points="484.32,-43.95 487.78,-53.96 491.32,-43.98 484.32,-43.95"/>
<text text-anchor="middle" x="475.02" y="-26.2" font-family="STKaiti" font-size="11.00">(删除|添加)数据集</text>
</g>
<!-- app -->
<g id="node5" class="node">
<title>app</title>
<polygon fill="none" stroke="black" points="665.17,-89 662.17,-93 641.17,-93 638.17,-89 588.17,-89 588.17,-53 665.17,-53 665.17,-89"/>
<text text-anchor="middle" x="626.67" y="-67.3" font-family="Times,serif" font-size="14.00">项目(App)</text>
</g>
<!-- model&#45;&gt;app -->
<g id="edge7" class="edge">
<title>model&#45;&gt;app</title>
<path fill="none" stroke="black" d="M505.95,-71C526.53,-71 554.3,-71 577.92,-71"/>
<polygon fill="black" stroke="black" points="578.09,-74.5 588.09,-71 578.09,-67.5 578.09,-74.5"/>
<text text-anchor="middle" x="547.17" y="-74.2" font-family="STKaiti" font-size="11.00">绑定项目</text>
</g>
</g>
</svg>
