<?xml version="1.0" encoding="UTF-8" standalone="no"?>
<!DOCTYPE svg PUBLIC "-//W3C//DTD SVG 1.1//EN"
 "http://www.w3.org/Graphics/SVG/1.1/DTD/svg11.dtd">
<!-- Generated by graphviz version 2.44.0 (20200408.0750)
 -->
<!-- Title: finite_state_machine Pages: 1 -->
<svg width="576pt" height="316pt"
 viewBox="0.00 0.00 576.00 316.30" xmlns="http://www.w3.org/2000/svg" xmlns:xlink="http://www.w3.org/1999/xlink">
<g id="graph0" class="graph" transform="scale(0.96 0.96) rotate(0) translate(4 324.09)">
<title>finite_state_machine</title>
<polygon fill="white" stroke="transparent" points="-4,4 -4,-324.09 593.47,-324.09 593.47,4 -4,4"/>
<!-- LR_0 -->
<g id="node1" class="node">
<title>LR_0</title>
<ellipse fill="none" stroke="black" cx="34.55" cy="-80.55" rx="30.59" ry="30.59"/>
<ellipse fill="none" stroke="black" cx="34.55" cy="-80.55" rx="34.59" ry="34.59"/>
<text text-anchor="middle" x="34.55" y="-76.85" font-family="Times,serif" font-size="14.00">LR_0</text>
</g>
<!-- LR_2 -->
<g id="node4" class="node">
<title>LR_2</title>
<ellipse fill="none" stroke="black" cx="169.64" cy="-148.55" rx="30.59" ry="30.59"/>
<text text-anchor="middle" x="169.64" y="-144.85" font-family="Times,serif" font-size="14.00">LR_2</text>
</g>
<!-- LR_0&#45;&gt;LR_2 -->
<g id="edge1" class="edge">
<title>LR_0&#45;&gt;LR_2</title>
<path fill="none" stroke="black" d="M65.75,-95.98C85.79,-106.22 112.18,-119.7 133.21,-130.45"/>
<polygon fill="black" stroke="black" points="131.67,-133.59 142.16,-135.02 134.85,-127.35 131.67,-133.59"/>
<text text-anchor="middle" x="104.09" y="-126.35" font-family="Times,serif" font-size="14.00">SS(B)</text>
</g>
<!-- LR_1 -->
<g id="node5" class="node">
<title>LR_1</title>
<ellipse fill="none" stroke="black" cx="169.64" cy="-41.55" rx="30.59" ry="30.59"/>
<text text-anchor="middle" x="169.64" y="-37.85" font-family="Times,serif" font-size="14.00">LR_1</text>
</g>
<!-- LR_0&#45;&gt;LR_1 -->
<g id="edge2" class="edge">
<title>LR_0&#45;&gt;LR_1</title>
<path fill="none" stroke="black" d="M68.11,-71.01C86.93,-65.49 110.73,-58.52 130.44,-52.74"/>
<polygon fill="black" stroke="black" points="131.42,-56.1 140.03,-49.93 129.45,-49.38 131.42,-56.1"/>
<text text-anchor="middle" x="104.09" y="-67.35" font-family="Times,serif" font-size="14.00">SS(S)</text>
</g>
<!-- LR_3 -->
<g id="node2" class="node">
<title>LR_3</title>
<ellipse fill="none" stroke="black" cx="313.74" cy="-34.55" rx="30.59" ry="30.59"/>
<ellipse fill="none" stroke="black" cx="313.74" cy="-34.55" rx="34.59" ry="34.59"/>
<text text-anchor="middle" x="313.74" y="-30.85" font-family="Times,serif" font-size="14.00">LR_3</text>
</g>
<!-- LR_4 -->
<g id="node3" class="node">
<title>LR_4</title>
<ellipse fill="none" stroke="black" cx="313.74" cy="-285.55" rx="30.59" ry="30.59"/>
<ellipse fill="none" stroke="black" cx="313.74" cy="-285.55" rx="34.59" ry="34.59"/>
<text text-anchor="middle" x="313.74" y="-281.85" font-family="Times,serif" font-size="14.00">LR_4</text>
</g>
<!-- LR_2&#45;&gt;LR_4 -->
<g id="edge6" class="edge">
<title>LR_2&#45;&gt;LR_4</title>
<path fill="none" stroke="black" d="M192.22,-169.35C215.78,-192.07 253.75,-228.68 280.77,-254.73"/>
<polygon fill="black" stroke="black" points="278.45,-257.36 288.08,-261.78 283.31,-252.32 278.45,-257.36"/>
<text text-anchor="middle" x="239.69" y="-236.35" font-family="Times,serif" font-size="14.00">S(A)</text>
</g>
<!-- LR_6 -->
<g id="node6" class="node">
<title>LR_6</title>
<ellipse fill="none" stroke="black" cx="313.74" cy="-169.55" rx="30.59" ry="30.59"/>
<text text-anchor="middle" x="313.74" y="-165.85" font-family="Times,serif" font-size="14.00">LR_6</text>
</g>
<!-- LR_2&#45;&gt;LR_6 -->
<g id="edge4" class="edge">
<title>LR_2&#45;&gt;LR_6</title>
<path fill="none" stroke="black" d="M200.08,-152.9C221.23,-156.02 249.97,-160.27 273.13,-163.69"/>
<polygon fill="black" stroke="black" points="272.93,-167.2 283.33,-165.2 273.95,-160.28 272.93,-167.2"/>
<text text-anchor="middle" x="239.69" y="-164.35" font-family="Times,serif" font-size="14.00">SS(b)</text>
</g>
<!-- LR_5 -->
<g id="node7" class="node">
<title>LR_5</title>
<ellipse fill="none" stroke="black" cx="437.83" cy="-121.55" rx="30.59" ry="30.59"/>
<text text-anchor="middle" x="437.83" y="-117.85" font-family="Times,serif" font-size="14.00">LR_5</text>
</g>
<!-- LR_2&#45;&gt;LR_5 -->
<g id="edge5" class="edge">
<title>LR_2&#45;&gt;LR_5</title>
<path fill="none" stroke="black" d="M198.2,-137.36C219.82,-129.21 250.88,-118.88 279.19,-114.55 309.54,-109.9 317.6,-113.34 348.28,-114.55 364.31,-115.18 381.93,-116.45 397.2,-117.74"/>
<polygon fill="black" stroke="black" points="397.08,-121.25 407.35,-118.63 397.69,-114.27 397.08,-121.25"/>
<text text-anchor="middle" x="313.74" y="-118.35" font-family="Times,serif" font-size="14.00">SS(a)</text>
</g>
<!-- LR_1&#45;&gt;LR_3 -->
<g id="edge3" class="edge">
<title>LR_1&#45;&gt;LR_3</title>
<path fill="none" stroke="black" d="M200.43,-40.08C220.24,-39.1 246.6,-37.81 268.81,-36.71"/>
<polygon fill="black" stroke="black" points="269.19,-40.2 279,-36.21 268.84,-33.21 269.19,-40.2"/>
<text text-anchor="middle" x="239.69" y="-43.35" font-family="Times,serif" font-size="14.00">S($end)</text>
</g>
<!-- LR_6&#45;&gt;LR_6 -->
<g id="edge9" class="edge">
<title>LR_6&#45;&gt;LR_6</title>
<path fill="none" stroke="black" d="M301.78,-197.97C301.25,-208.96 305.24,-218.09 313.74,-218.09 319.45,-218.09 323.12,-213.97 324.75,-207.93"/>
<polygon fill="black" stroke="black" points="328.24,-208.25 325.69,-197.97 321.27,-207.6 328.24,-208.25"/>
<text text-anchor="middle" x="313.74" y="-221.89" font-family="Times,serif" font-size="14.00">S(b)</text>
</g>
<!-- LR_6&#45;&gt;LR_5 -->
<g id="edge10" class="edge">
<title>LR_6&#45;&gt;LR_5</title>
<path fill="none" stroke="black" d="M342.44,-158.66C359.38,-152 381.26,-143.4 399.68,-136.15"/>
<polygon fill="black" stroke="black" points="401.21,-139.31 409.24,-132.4 398.65,-132.8 401.21,-139.31"/>
<text text-anchor="middle" x="377.78" y="-151.35" font-family="Times,serif" font-size="14.00">S(a)</text>
</g>
<!-- LR_5&#45;&gt;LR_5 -->
<g id="edge8" class="edge">
<title>LR_5&#45;&gt;LR_5</title>
<path fill="none" stroke="black" d="M426.62,-149.97C426.13,-160.96 429.86,-170.09 437.83,-170.09 443.19,-170.09 446.63,-165.97 448.16,-159.93"/>
<polygon fill="black" stroke="black" points="451.65,-160.24 449.04,-149.97 444.67,-159.63 451.65,-160.24"/>
<text text-anchor="middle" x="437.83" y="-173.89" font-family="Times,serif" font-size="14.00">S(a)</text>
</g>
<!-- LR_7 -->
<g id="node8" class="node">
<title>LR_7</title>
<ellipse fill="none" stroke="black" cx="558.93" cy="-121.55" rx="30.59" ry="30.59"/>
<text text-anchor="middle" x="558.93" y="-117.85" font-family="Times,serif" font-size="14.00">LR_7</text>
</g>
<!-- LR_5&#45;&gt;LR_7 -->
<g id="edge7" class="edge">
<title>LR_5&#45;&gt;LR_7</title>
<path fill="none" stroke="black" d="M468.58,-121.55C483.5,-121.55 501.78,-121.55 517.91,-121.55"/>
<polygon fill="black" stroke="black" points="518.15,-125.05 528.15,-121.55 518.15,-118.05 518.15,-125.05"/>
<text text-anchor="middle" x="498.38" y="-125.35" font-family="Times,serif" font-size="14.00">S(b)</text>
</g>
</g>
</svg>
