<?xml version="1.0" encoding="UTF-8" standalone="no"?>
<!DOCTYPE svg PUBLIC "-//W3C//DTD SVG 1.1//EN"
 "http://www.w3.org/Graphics/SVG/1.1/DTD/svg11.dtd">
<!-- Generated by graphviz version 2.44.0 (20200408.0750)
 -->
<!-- Title: finite_state_machine Pages: 1 -->
<svg width="468pt" height="241pt"
 viewBox="0.00 0.00 468.35 241.09" xmlns="http://www.w3.org/2000/svg" xmlns:xlink="http://www.w3.org/1999/xlink">
<g id="graph0" class="graph" transform="scale(1 1) rotate(0) translate(4 237.09)">
<title>finite_state_machine</title>
<polygon fill="white" stroke="transparent" points="-4,4 -4,-237.09 464.35,-237.09 464.35,4 -4,4"/>
<!-- LR_0 -->
<g id="node1" class="node">
<title>LR_0</title>
<ellipse fill="none" stroke="black" cx="34.55" cy="-70.55" rx="30.59" ry="30.59"/>
<ellipse fill="none" stroke="black" cx="34.55" cy="-70.55" rx="34.59" ry="34.59"/>
<text text-anchor="middle" x="34.55" y="-66.85" font-family="Times,serif" font-size="14.00">LR_0</text>
</g>
<!-- LR_2 -->
<g id="node4" class="node">
<title>LR_2</title>
<ellipse fill="none" stroke="black" cx="169.64" cy="-130.55" rx="30.59" ry="30.59"/>
<text text-anchor="middle" x="169.64" y="-126.85" font-family="Times,serif" font-size="14.00">LR_2</text>
</g>
<!-- LR_0&#45;&gt;LR_2 -->
<g id="edge1" class="edge">
<title>LR_0&#45;&gt;LR_2</title>
<path fill="none" stroke="black" d="M66.42,-84.46C86.04,-93.31 111.54,-104.8 132.16,-114.1"/>
<polygon fill="black" stroke="black" points="130.99,-117.41 141.55,-118.33 133.87,-111.03 130.99,-117.41"/>
<text text-anchor="middle" x="104.09" y="-111.35" font-family="Times,serif" font-size="14.00">SS(B)</text>
</g>
<!-- LR_1 -->
<g id="node5" class="node">
<title>LR_1</title>
<ellipse fill="none" stroke="black" cx="169.64" cy="-51.55" rx="30.59" ry="30.59"/>
<text text-anchor="middle" x="169.64" y="-47.85" font-family="Times,serif" font-size="14.00">LR_1</text>
</g>
<!-- LR_0&#45;&gt;LR_1 -->
<g id="edge2" class="edge">
<title>LR_0&#45;&gt;LR_1</title>
<path fill="none" stroke="black" d="M68.79,-65.8C87.06,-63.19 109.85,-59.94 129.04,-57.2"/>
<polygon fill="black" stroke="black" points="129.59,-60.66 139,-55.78 128.6,-53.73 129.59,-60.66"/>
<text text-anchor="middle" x="104.09" y="-67.35" font-family="Times,serif" font-size="14.00">SS(S)</text>
</g>
<!-- LR_4 -->
<g id="node2" class="node">
<title>LR_4</title>
<ellipse fill="none" stroke="black" cx="301.74" cy="-198.55" rx="30.59" ry="30.59"/>
<ellipse fill="none" stroke="black" cx="301.74" cy="-198.55" rx="34.59" ry="34.59"/>
<text text-anchor="middle" x="301.74" y="-194.85" font-family="Times,serif" font-size="14.00">LR_4</text>
</g>
<!-- LR_5 -->
<g id="node3" class="node">
<title>LR_5</title>
<polygon fill="none" stroke="black" points="430.83,-62.6 432.82,-62.7 434.8,-62.84 436.74,-63.04 438.65,-63.28 440.52,-63.57 442.33,-63.91 444.08,-64.3 445.77,-64.72 447.39,-65.19 448.93,-65.71 450.39,-66.26 451.76,-66.86 453.04,-67.49 454.22,-68.15 455.3,-68.85 456.28,-69.59 457.16,-70.35 457.93,-71.14 458.6,-71.96 459.16,-72.8 459.61,-73.66 459.96,-74.54 460.2,-75.43 460.34,-76.34 460.38,-77.27 460.32,-78.2 460.16,-79.13 459.91,-80.08 459.57,-81.02 459.14,-81.96 458.64,-82.9 458.05,-83.83 457.39,-84.75 456.67,-85.66 455.87,-86.56 455.02,-87.44 454.12,-88.3 453.16,-89.14 452.15,-89.96 451.1,-90.75 450.01,-91.51 448.89,-92.24 447.74,-92.94 446.56,-93.61 445.35,-94.24 444.12,-94.83 442.87,-95.39 441.61,-95.9 440.33,-96.37 439.04,-96.8 437.74,-97.18 436.43,-97.52 435.12,-97.81 433.8,-98.06 432.47,-98.25 431.14,-98.4 429.81,-98.5 428.48,-98.55 427.15,-98.55 425.82,-98.5 424.49,-98.4 423.16,-98.25 421.83,-98.06 420.51,-97.81 419.2,-97.52 417.89,-97.18 416.59,-96.8 415.3,-96.37 414.02,-95.9 412.76,-95.39 411.51,-94.83 410.28,-94.24 409.07,-93.61 407.89,-92.94 406.74,-92.24 405.61,-91.51 404.53,-90.75 403.48,-89.96 402.47,-89.14 401.51,-88.3 400.61,-87.44 399.76,-86.56 398.96,-85.66 398.24,-84.75 397.58,-83.83 396.99,-82.9 396.49,-81.96 396.06,-81.02 395.72,-80.08 395.47,-79.13 395.31,-78.2 395.25,-77.27 395.29,-76.34 395.43,-75.43 395.67,-74.54 396.02,-73.66 396.47,-72.8 397.03,-71.96 397.7,-71.14 398.47,-70.35 399.35,-69.59 400.33,-68.85 401.41,-68.15 402.59,-67.49 403.87,-66.86 405.24,-66.26 406.7,-65.71 408.24,-65.19 409.86,-64.72 411.54,-64.3 413.3,-63.91 415.11,-63.57 416.98,-63.28 418.89,-63.04 420.83,-62.84 422.81,-62.7 424.8,-62.6 426.81,-62.55 428.82,-62.55 430.83,-62.6"/>
<text text-anchor="middle" x="427.81" y="-76.85" font-family="Times,serif" font-size="14.00">LR_5</text>
</g>
<!-- LR_5&#45;&gt;LR_5 -->
<g id="edge6" class="edge">
<title>LR_5&#45;&gt;LR_5</title>
<path fill="none" stroke="black" d="M416.92,-97.21C414.49,-107.17 418.13,-116.55 427.81,-116.55 434.02,-116.55 437.74,-112.7 438.98,-107.32"/>
<polygon fill="black" stroke="black" points="442.47,-107.12 438.71,-97.21 435.48,-107.3 442.47,-107.12"/>
<text text-anchor="middle" x="427.81" y="-120.35" font-family="Times,serif" font-size="14.00">S(a)</text>
</g>
<!-- LR_2&#45;&gt;LR_4 -->
<g id="edge5" class="edge">
<title>LR_2&#45;&gt;LR_4</title>
<path fill="none" stroke="black" d="M196.97,-144.31C215.59,-154.04 240.88,-167.26 261.83,-178.21"/>
<polygon fill="black" stroke="black" points="260.32,-181.37 270.81,-182.9 263.57,-175.17 260.32,-181.37"/>
<text text-anchor="middle" x="233.69" y="-174.35" font-family="Times,serif" font-size="14.00">S(A)</text>
</g>
<!-- LR_2&#45;&gt;LR_5 -->
<g id="edge4" class="edge">
<title>LR_2&#45;&gt;LR_5</title>
<path fill="none" stroke="black" d="M200.11,-126.54C233.34,-121.83 288.93,-113.4 336.28,-103.55 354.43,-99.77 374.41,-94.78 390.98,-90.42"/>
<polygon fill="black" stroke="black" points="392.05,-93.76 400.81,-87.8 390.24,-86.99 392.05,-93.76"/>
<text text-anchor="middle" x="301.74" y="-119.35" font-family="Times,serif" font-size="14.00">SS(a)</text>
</g>
<!-- LR_6 -->
<g id="node6" class="node">
<title>LR_6</title>
<ellipse fill="none" stroke="black" cx="301.74" cy="-30.55" rx="30.59" ry="30.59"/>
<text text-anchor="middle" x="301.74" y="-26.85" font-family="Times,serif" font-size="14.00">LR_6</text>
</g>
<!-- LR_2&#45;&gt;LR_6 -->
<g id="edge3" class="edge">
<title>LR_2&#45;&gt;LR_6</title>
<path fill="none" stroke="black" d="M194.5,-112.21C215.41,-96.14 245.96,-72.65 268.94,-54.99"/>
<polygon fill="black" stroke="black" points="271.23,-57.64 277.03,-48.77 266.96,-52.09 271.23,-57.64"/>
<text text-anchor="middle" x="233.69" y="-95.35" font-family="Times,serif" font-size="14.00">SS(b)</text>
</g>
<!-- LR_6&#45;&gt;LR_5 -->
<g id="edge8" class="edge">
<title>LR_6&#45;&gt;LR_5</title>
<path fill="none" stroke="black" d="M330.27,-41.64C347.86,-48.73 370.88,-58.01 390.03,-65.72"/>
<polygon fill="black" stroke="black" points="388.77,-68.99 399.35,-69.48 391.39,-62.5 388.77,-68.99"/>
<text text-anchor="middle" x="365.78" y="-64.35" font-family="Times,serif" font-size="14.00">S(a)</text>
</g>
<!-- LR_6&#45;&gt;LR_6 -->
<g id="edge7" class="edge">
<title>LR_6&#45;&gt;LR_6</title>
<path fill="none" stroke="black" d="M289.78,-58.97C289.25,-69.96 293.24,-79.09 301.74,-79.09 307.45,-79.09 311.12,-74.97 312.75,-68.93"/>
<polygon fill="black" stroke="black" points="316.24,-69.25 313.69,-58.97 309.27,-68.6 316.24,-69.25"/>
<text text-anchor="middle" x="301.74" y="-82.89" font-family="Times,serif" font-size="14.00">S(b)</text>
</g>
</g>
</svg>
