<?xml version="1.0" encoding="UTF-8" standalone="no"?>
<!DOCTYPE svg PUBLIC "-//W3C//DTD SVG 1.1//EN"
 "http://www.w3.org/Graphics/SVG/1.1/DTD/svg11.dtd">
<!-- Generated by graphviz version 2.44.0 (20200408.0750)
 -->
<!-- Pages: 1 -->
<svg width="422pt" height="98pt"
 viewBox="0.00 0.00 422.00 98.00" xmlns="http://www.w3.org/2000/svg" xmlns:xlink="http://www.w3.org/1999/xlink">
<g id="graph0" class="graph" transform="scale(1 1) rotate(0) translate(4 94)">
<polygon fill="white" stroke="transparent" points="-4,4 -4,-94 418,-94 418,4 -4,4"/>
<!-- a -->
<g id="node1" class="node">
<title>a</title>
<ellipse fill="none" stroke="black" cx="27" cy="-41" rx="27" ry="18"/>
<text text-anchor="middle" x="27" y="-37.3" font-family="Times,serif" font-size="14.00">a</text>
</g>
<!-- b -->
<g id="node2" class="node">
<title>b</title>
<ellipse fill="none" stroke="black" cx="117" cy="-18" rx="27" ry="18"/>
<text text-anchor="middle" x="117" y="-14.3" font-family="Times,serif" font-size="14.00">b</text>
</g>
<!-- a&#45;&#45;b -->
<g id="edge1" class="edge">
<title>a&#45;&#45;b</title>
<path fill="none" stroke="red" stroke-width="3" d="M52.51,-34.59C64.72,-31.4 79.43,-27.56 91.62,-24.37"/>
</g>
<!-- d -->
<g id="node3" class="node">
<title>d</title>
<ellipse fill="none" stroke="black" cx="207" cy="-64" rx="27" ry="18"/>
<text text-anchor="middle" x="207" y="-60.3" font-family="Times,serif" font-size="14.00">d</text>
</g>
<!-- a&#45;&#45;d -->
<g id="edge8" class="edge">
<title>a&#45;&#45;d</title>
<path fill="none" stroke="black" d="M53.88,-44.34C87.73,-48.72 146.66,-56.33 180.37,-60.69"/>
</g>
<!-- b&#45;&#45;d -->
<g id="edge2" class="edge">
<title>b&#45;&#45;d</title>
<path fill="none" stroke="red" stroke-width="3" d="M138.85,-28.9C152.88,-36.23 171.3,-45.86 185.29,-53.18"/>
</g>
<!-- c -->
<g id="node4" class="node">
<title>c</title>
<ellipse fill="none" stroke="black" cx="297" cy="-18" rx="27" ry="18"/>
<text text-anchor="middle" x="297" y="-14.3" font-family="Times,serif" font-size="14.00">c</text>
</g>
<!-- b&#45;&#45;c -->
<g id="edge5" class="edge">
<title>b&#45;&#45;c</title>
<path fill="none" stroke="black" d="M144.26,-18C178.02,-18 236.26,-18 269.92,-18"/>
</g>
<!-- d&#45;&#45;c -->
<g id="edge3" class="edge">
<title>d&#45;&#45;c</title>
<path fill="none" stroke="red" stroke-width="3" d="M228.85,-53.1C242.88,-45.77 261.3,-36.14 275.29,-28.82"/>
</g>
<!-- e -->
<g id="node6" class="node">
<title>e</title>
<ellipse fill="none" stroke="black" cx="297" cy="-72" rx="27" ry="18"/>
<text text-anchor="middle" x="297" y="-68.3" font-family="Times,serif" font-size="14.00">e</text>
</g>
<!-- d&#45;&#45;e -->
<g id="edge6" class="edge">
<title>d&#45;&#45;e</title>
<path fill="none" stroke="black" d="M233.93,-66.36C245.28,-67.39 258.58,-68.6 269.95,-69.63"/>
</g>
<!-- f -->
<g id="node5" class="node">
<title>f</title>
<ellipse fill="none" stroke="black" cx="387" cy="-45" rx="27" ry="18"/>
<text text-anchor="middle" x="387" y="-41.3" font-family="Times,serif" font-size="14.00">f</text>
</g>
<!-- c&#45;&#45;f -->
<g id="edge4" class="edge">
<title>c&#45;&#45;f</title>
<path fill="none" stroke="red" stroke-width="3" d="M322.05,-25.38C334.57,-29.22 349.82,-33.9 362.29,-37.72"/>
</g>
<!-- e&#45;&#45;f -->
<g id="edge7" class="edge">
<title>e&#45;&#45;f</title>
<path fill="none" stroke="black" d="M322.05,-64.62C334.57,-60.78 349.82,-56.1 362.29,-52.28"/>
</g>
</g>
</svg>
