<?xml version="1.0" encoding="UTF-8" standalone="no"?>
<!DOCTYPE svg PUBLIC "-//W3C//DTD SVG 1.1//EN"
 "http://www.w3.org/Graphics/SVG/1.1/DTD/svg11.dtd">
<!-- Generated by graphviz version 2.44.0 (20200408.0750)
 -->
<!-- Pages: 1 -->
<svg width="200pt" height="246pt"
 viewBox="0.00 0.00 200.00 246.00" xmlns="http://www.w3.org/2000/svg" xmlns:xlink="http://www.w3.org/1999/xlink">
<g id="graph0" class="graph" transform="scale(1 1) rotate(0) translate(4 242)">
<polygon fill="white" stroke="transparent" points="-4,4 -4,-242 196,-242 196,4 -4,4"/>
<g id="clust1" class="cluster">
<title>cluster_0</title>
<polygon fill="none" stroke="black" points="8,-8 8,-230 92,-230 92,-8 8,-8"/>
<text text-anchor="middle" x="50" y="-214.8" font-family="Times,serif" font-size="14.00">聚集子图 1</text>
</g>
<g id="clust2" class="cluster">
<title>cluster_1</title>
<polygon fill="none" stroke="black" points="100,-80 100,-155 184,-155 184,-80 100,-80"/>
<text text-anchor="middle" x="142" y="-139.8" font-family="Times,serif" font-size="14.00">聚集子图 2</text>
</g>
<!-- a -->
<g id="node1" class="node">
<title>a</title>
<ellipse fill="none" stroke="black" cx="57" cy="-181" rx="27" ry="18"/>
<text text-anchor="middle" x="57" y="-177.3" font-family="Times,serif" font-size="14.00">a</text>
</g>
<!-- b -->
<g id="node2" class="node">
<title>b</title>
<ellipse fill="none" stroke="black" cx="57" cy="-106" rx="27" ry="18"/>
<text text-anchor="middle" x="57" y="-102.3" font-family="Times,serif" font-size="14.00">b</text>
</g>
<!-- a&#45;&gt;b -->
<g id="edge1" class="edge">
<title>a&#45;&gt;b</title>
<path fill="none" stroke="black" d="M57,-162.7C57,-154.25 57,-143.87 57,-134.37"/>
<polygon fill="black" stroke="black" points="60.5,-134.18 57,-124.18 53.5,-134.18 60.5,-134.18"/>
</g>
<!-- f -->
<g id="node4" class="node">
<title>f</title>
<ellipse fill="none" stroke="black" cx="135" cy="-106" rx="27" ry="18"/>
<text text-anchor="middle" x="135" y="-102.3" font-family="Times,serif" font-size="14.00">f</text>
</g>
<!-- a&#45;&gt;f -->
<g id="edge3" class="edge">
<title>a&#45;&gt;f</title>
<path fill="none" stroke="black" d="M77.31,-168.69C83.61,-164.75 90.36,-160.04 96,-155 103.96,-147.88 111.62,-139.05 118.02,-130.91"/>
<polygon fill="black" stroke="black" points="120.93,-132.87 124.18,-122.78 115.35,-128.64 120.93,-132.87"/>
</g>
<!-- c -->
<g id="node3" class="node">
<title>c</title>
<ellipse fill="none" stroke="black" cx="57" cy="-34" rx="27" ry="18"/>
<text text-anchor="middle" x="57" y="-30.3" font-family="Times,serif" font-size="14.00">c</text>
</g>
<!-- b&#45;&gt;c -->
<g id="edge2" class="edge">
<title>b&#45;&gt;c</title>
<path fill="none" stroke="black" d="M57,-87.7C57,-79.98 57,-70.71 57,-62.11"/>
<polygon fill="black" stroke="black" points="60.5,-62.1 57,-52.1 53.5,-62.1 60.5,-62.1"/>
</g>
<!-- f&#45;&gt;c -->
<g id="edge4" class="edge">
<title>f&#45;&gt;c</title>
<path fill="none" stroke="black" d="M119.59,-91.17C108.27,-81.01 92.69,-67.03 79.91,-55.56"/>
<polygon fill="black" stroke="black" points="82.16,-52.88 72.38,-48.8 77.48,-58.09 82.16,-52.88"/>
</g>
</g>
</svg>
