<?xml version="1.0" encoding="UTF-8" standalone="no"?>
<!DOCTYPE svg PUBLIC "-//W3C//DTD SVG 1.1//EN"
 "http://www.w3.org/Graphics/SVG/1.1/DTD/svg11.dtd">
<!-- Generated by graphviz version 2.44.0 (20200408.0750)
 -->
<!-- Title: G Pages: 1 -->
<svg width="694pt" height="399pt"
 viewBox="0.00 0.00 694.06 399.00" xmlns="http://www.w3.org/2000/svg" xmlns:xlink="http://www.w3.org/1999/xlink">
<g id="graph0" class="graph" transform="scale(1 1) rotate(0) translate(4 395)">
<title>G</title>
<polygon fill="white" stroke="transparent" points="-4,4 -4,-395 690.06,-395 690.06,4 -4,4"/>
<!-- f_label -->
<g id="node1" class="node">
<title>f_label</title>
<path fill="none" stroke="white" d="M107,-36C107,-36 12,-36 12,-36 6,-36 0,-30 0,-24 0,-24 0,-12 0,-12 0,-6 6,0 12,0 12,0 107,0 107,0 113,0 119,-6 119,-12 119,-12 119,-24 119,-24 119,-30 113,-36 107,-36"/>
<text text-anchor="middle" x="59.5" y="-14.6" font-family="Serif" font-size="13.00">前端（用户行为）</text>
</g>
<!-- b_label -->
<g id="node7" class="node">
<title>b_label</title>
<path fill="none" stroke="white" d="M255,-36C255,-36 225,-36 225,-36 219,-36 213,-30 213,-24 213,-24 213,-12 213,-12 213,-6 219,0 225,0 225,0 255,0 255,0 261,0 267,-6 267,-12 267,-12 267,-24 267,-24 267,-30 261,-36 255,-36"/>
<text text-anchor="middle" x="240" y="-14.6" font-family="Serif" font-size="13.00">后端</text>
</g>
<!-- f_label&#45;&gt;b_label -->
<g id="edge4" class="edge">
<title>f_label&#45;&gt;b_label</title>
</g>
<!-- a1 -->
<g id="node2" class="node">
<title>a1</title>
<path fill="none" stroke="black" d="M78.5,-391C78.5,-391 40.5,-391 40.5,-391 34.5,-391 28.5,-385 28.5,-379 28.5,-379 28.5,-367 28.5,-367 28.5,-361 34.5,-355 40.5,-355 40.5,-355 78.5,-355 78.5,-355 84.5,-355 90.5,-361 90.5,-367 90.5,-367 90.5,-379 90.5,-379 90.5,-385 84.5,-391 78.5,-391"/>
<text text-anchor="middle" x="59.5" y="-370.2" font-family="STKaiti" font-size="11.00">面试结果</text>
</g>
<!-- b1 -->
<g id="node8" class="node">
<title>b1</title>
<path fill="none" stroke="black" d="M259,-391C259,-391 221,-391 221,-391 215,-391 209,-385 209,-379 209,-379 209,-367 209,-367 209,-361 215,-355 221,-355 221,-355 259,-355 259,-355 265,-355 271,-361 271,-367 271,-367 271,-379 271,-379 271,-385 265,-391 259,-391"/>
<text text-anchor="middle" x="240" y="-370.2" font-family="STKaiti" font-size="11.00">音频提取</text>
</g>
<!-- a1&#45;&gt;b1 -->
<g id="edge5" class="edge">
<title>a1&#45;&gt;b1</title>
<path fill="none" stroke="black" d="M90.78,-373C120.49,-373 165.97,-373 198.72,-373"/>
<polygon fill="black" stroke="black" points="198.87,-376.5 208.87,-373 198.87,-369.5 198.87,-376.5"/>
</g>
<!-- a2 -->
<g id="node3" class="node">
<title>a2</title>
<path fill="none" stroke="black" d="M74.5,-270C74.5,-270 44.5,-270 44.5,-270 38.5,-270 32.5,-264 32.5,-258 32.5,-258 32.5,-246 32.5,-246 32.5,-240 38.5,-234 44.5,-234 44.5,-234 74.5,-234 74.5,-234 80.5,-234 86.5,-240 86.5,-246 86.5,-246 86.5,-258 86.5,-258 86.5,-264 80.5,-270 74.5,-270"/>
<text text-anchor="middle" x="59.5" y="-249.2" font-family="STKaiti" font-size="11.00">刷新</text>
</g>
<!-- b_query -->
<g id="node11" class="node">
<title>b_query</title>
<path fill="none" stroke="black" d="M275.5,-216C275.5,-216 204.5,-216 204.5,-216 198.5,-216 192.5,-210 192.5,-204 192.5,-204 192.5,-192 192.5,-192 192.5,-186 198.5,-180 204.5,-180 204.5,-180 275.5,-180 275.5,-180 281.5,-180 287.5,-186 287.5,-192 287.5,-192 287.5,-204 287.5,-204 287.5,-210 281.5,-216 275.5,-216"/>
<text text-anchor="middle" x="240" y="-195.2" font-family="STKaiti" font-size="11.00">查询、组装数据</text>
</g>
<!-- a2&#45;&gt;b_query -->
<g id="edge11" class="edge">
<title>a2:s&#45;&gt;b_query</title>
<path fill="none" stroke="black" d="M59.5,-233C59.5,-226.33 112.43,-226.18 119,-225 139.86,-221.26 162.58,-216.36 182.58,-211.77"/>
<polygon fill="black" stroke="black" points="183.51,-215.14 192.46,-209.47 181.93,-208.32 183.51,-215.14"/>
</g>
<!-- a3 -->
<g id="node4" class="node">
<title>a3</title>
<path fill="none" stroke="black" d="M78.5,-216C78.5,-216 40.5,-216 40.5,-216 34.5,-216 28.5,-210 28.5,-204 28.5,-204 28.5,-192 28.5,-192 28.5,-186 34.5,-180 40.5,-180 40.5,-180 78.5,-180 78.5,-180 84.5,-180 90.5,-186 90.5,-192 90.5,-192 90.5,-204 90.5,-204 90.5,-210 84.5,-216 78.5,-216"/>
<text text-anchor="middle" x="59.5" y="-195.2" font-family="STKaiti" font-size="11.00">转录结果</text>
</g>
<!-- a4 -->
<g id="node5" class="node">
<title>a4</title>
<path fill="none" stroke="black" d="M78.5,-144C78.5,-144 40.5,-144 40.5,-144 34.5,-144 28.5,-138 28.5,-132 28.5,-132 28.5,-120 28.5,-120 28.5,-114 34.5,-108 40.5,-108 40.5,-108 78.5,-108 78.5,-108 84.5,-108 90.5,-114 90.5,-120 90.5,-120 90.5,-132 90.5,-132 90.5,-138 84.5,-144 78.5,-144"/>
<text text-anchor="middle" x="59.5" y="-123.2" font-family="STKaiti" font-size="11.00">划词修正</text>
</g>
<!-- a3&#45;&gt;a4 -->
<g id="edge13" class="edge">
<title>a3&#45;&gt;a4</title>
<path fill="none" stroke="black" d="M59.5,-179.95C59.5,-171.41 59.5,-162.86 59.5,-154.31"/>
<polygon fill="black" stroke="black" points="63,-154.28 59.5,-144.28 56,-154.28 63,-154.28"/>
</g>
<!-- b_updatesql -->
<g id="node10" class="node">
<title>b_updatesql</title>
<path fill="none" stroke="black" d="M274.5,-144C274.5,-144 205.5,-144 205.5,-144 199.5,-144 193.5,-138 193.5,-132 193.5,-132 193.5,-120 193.5,-120 193.5,-114 199.5,-108 205.5,-108 205.5,-108 274.5,-108 274.5,-108 280.5,-108 286.5,-114 286.5,-120 286.5,-120 286.5,-132 286.5,-132 286.5,-138 280.5,-144 274.5,-144"/>
<text text-anchor="middle" x="240" y="-123.2" font-family="STKaiti" font-size="11.00">更新 MySQL, ES</text>
</g>
<!-- a4&#45;&gt;b_updatesql -->
<g id="edge14" class="edge">
<title>a4&#45;&gt;b_updatesql</title>
<path fill="none" stroke="black" d="M90.78,-126C116.07,-126 152.79,-126 183.36,-126"/>
<polygon fill="black" stroke="black" points="183.46,-129.5 193.46,-126 183.46,-122.5 183.46,-129.5"/>
</g>
<!-- a5 -->
<g id="node6" class="node">
<title>a5</title>
<path fill="none" stroke="black" d="M89.5,-90C89.5,-90 29.5,-90 29.5,-90 23.5,-90 17.5,-84 17.5,-78 17.5,-78 17.5,-66 17.5,-66 17.5,-60 23.5,-54 29.5,-54 29.5,-54 89.5,-54 89.5,-54 95.5,-54 101.5,-60 101.5,-66 101.5,-66 101.5,-78 101.5,-78 101.5,-84 95.5,-90 89.5,-90"/>
<text text-anchor="middle" x="59.5" y="-69.2" font-family="STKaiti" font-size="11.00">修改页面样式</text>
</g>
<!-- b_url -->
<g id="node12" class="node">
<title>b_url</title>
<path fill="none" stroke="black" d="M419,-342C419,-342 370,-342 370,-342 364,-342 358,-336 358,-330 358,-330 358,-318 358,-318 358,-312 364,-306 370,-306 370,-306 419,-306 419,-306 425,-306 431,-312 431,-318 431,-318 431,-330 431,-330 431,-336 425,-342 419,-342"/>
<text text-anchor="middle" x="394.5" y="-327.2" font-family="STKaiti" font-size="11.00">音频 URL +</text>
<text text-anchor="middle" x="394.5" y="-315.2" font-family="STKaiti" font-size="11.00"> 训练文本</text>
</g>
<!-- b1&#45;&gt;b_url -->
<g id="edge6" class="edge">
<title>b1&#45;&gt;b_url</title>
<path fill="none" stroke="black" d="M271.19,-363.98C290.43,-358.56 315.99,-351.96 339,-348"/>
</g>
<!-- b_train -->
<g id="node9" class="node">
<title>b_train</title>
<polygon fill="none" stroke="black" points="315,-337 159,-337 159,-281 321,-281 321,-331 315,-337"/>
<polyline fill="none" stroke="black" points="315,-337 315,-331 "/>
<polyline fill="none" stroke="black" points="321,-331 315,-331 "/>
<text text-anchor="middle" x="240" y="-324.2" font-family="STKaiti" font-size="11.00">丰富训练文本：</text>
<text text-anchor="middle" x="240" y="-312.2" font-family="STKaiti" font-size="11.00">1. 从【划词修正】中提取语句</text>
<text text-anchor="middle" x="240" y="-300.2" font-family="STKaiti" font-size="11.00">添加到训练文本中</text>
<text text-anchor="middle" x="240" y="-288.2" font-family="STKaiti" font-size="11.00">2. 手动构造语句</text>
</g>
<!-- b_train&#45;&gt;b_url -->
<g id="edge8" class="edge">
<title>b_train&#45;&gt;b_url</title>
<path fill="none" stroke="black" d="M297.07,-337.08C313.89,-344.22 330.2,-349.52 339,-348"/>
<path fill="none" stroke="black" d="M340,-348C343.47,-347.4 346.97,-346.53 350.44,-345.47"/>
<polygon fill="black" stroke="black" points="351.82,-348.69 360.07,-342.04 349.47,-342.1 351.82,-348.69"/>
</g>
<!-- b_updatesql&#45;&gt;a5 -->
<g id="edge15" class="edge">
<title>b_updatesql:s&#45;&gt;a5:e</title>
<path fill="none" stroke="black" d="M240,-107C240,-47.27 173.2,-69.29 112.56,-71.78"/>
<polygon fill="black" stroke="black" points="112.42,-68.29 102.5,-72 112.57,-75.28 112.42,-68.29"/>
</g>
<!-- b_mysql -->
<g id="node14" class="node">
<title>b_mysql</title>
<path fill="lightgrey" stroke="black" d="M428.5,-202.73C428.5,-204.53 413.26,-206 394.5,-206 375.74,-206 360.5,-204.53 360.5,-202.73 360.5,-202.73 360.5,-173.27 360.5,-173.27 360.5,-171.47 375.74,-170 394.5,-170 413.26,-170 428.5,-171.47 428.5,-173.27 428.5,-173.27 428.5,-202.73 428.5,-202.73"/>
<path fill="none" stroke="black" d="M428.5,-202.73C428.5,-200.92 413.26,-199.45 394.5,-199.45 375.74,-199.45 360.5,-200.92 360.5,-202.73"/>
<text text-anchor="middle" x="394.5" y="-185.2" font-family="STKaiti" font-size="11.00" fill="blue">MySQL, ES</text>
</g>
<!-- b_updatesql&#45;&gt;b_mysql -->
<g id="edge16" class="edge">
<title>b_updatesql&#45;&gt;b_mysql</title>
<path fill="none" stroke="black" d="M271.14,-144.26C294.45,-157.89 325.02,-174.55 339,-177"/>
<path fill="none" stroke="black" d="M340,-177C343.42,-177.6 346.95,-178.25 350.5,-178.93"/>
<polygon fill="black" stroke="black" points="349.96,-182.39 360.45,-180.89 351.32,-175.52 349.96,-182.39"/>
</g>
<!-- b_query&#45;&gt;a3 -->
<g id="edge12" class="edge">
<title>b_query&#45;&gt;a3</title>
<path fill="none" stroke="black" d="M192.44,-198C164.11,-198 128.28,-198 101.1,-198"/>
<polygon fill="black" stroke="black" points="100.78,-194.5 90.78,-198 100.78,-201.5 100.78,-194.5"/>
</g>
<!-- b_query&#45;&gt;b_mysql -->
<g id="edge3" class="edge">
<title>b_query&#45;&gt;b_mysql</title>
</g>
<!-- b_taskid -->
<g id="node13" class="node">
<title>b_taskid</title>
<path fill="none" stroke="black" d="M413.5,-270C413.5,-270 375.5,-270 375.5,-270 369.5,-270 363.5,-264 363.5,-258 363.5,-258 363.5,-246 363.5,-246 363.5,-240 369.5,-234 375.5,-234 375.5,-234 413.5,-234 413.5,-234 419.5,-234 425.5,-240 425.5,-246 425.5,-246 425.5,-258 425.5,-258 425.5,-264 419.5,-270 413.5,-270"/>
<text text-anchor="middle" x="394.5" y="-255.2" font-family="STKaiti" font-size="11.00">转录结果</text>
<text text-anchor="middle" x="394.5" y="-243.2" font-family="STKaiti" font-size="11.00">Task_ID</text>
</g>
<!-- b_url&#45;&gt;b_taskid -->
<g id="edge1" class="edge">
<title>b_url&#45;&gt;b_taskid</title>
</g>
<!-- c1 -->
<g id="node16" class="node">
<title>c1</title>
<path fill="none" stroke="black" d="M622.9,-276.3C622.9,-276.3 626.42,-276.4 626.42,-276.4 626.61,-276.41 627,-276.42 627.2,-276.43 627.2,-276.43 630.67,-276.59 630.67,-276.59 630.86,-276.59 631.25,-276.61 631.44,-276.63 631.44,-276.63 634.85,-276.83 634.85,-276.83 635.05,-276.84 635.44,-276.87 635.63,-276.88 635.63,-276.88 638.96,-277.13 638.96,-277.13 639.15,-277.14 639.54,-277.18 639.74,-277.19 639.74,-277.19 642.97,-277.49 642.97,-277.49 643.17,-277.51 643.56,-277.55 643.75,-277.57 643.75,-277.57 646.88,-277.91 646.88,-277.91 647.07,-277.93 647.46,-277.98 647.65,-278 647.65,-278 650.65,-278.39 650.65,-278.39 650.85,-278.42 651.23,-278.47 651.42,-278.5 651.42,-278.5 654.29,-278.92 654.29,-278.92 654.48,-278.95 654.87,-279.01 655.06,-279.05 655.06,-279.05 657.77,-279.51 657.77,-279.51 657.96,-279.54 658.35,-279.62 658.54,-279.65 658.54,-279.65 661.09,-280.15 661.09,-280.15 661.28,-280.19 661.66,-280.27 661.85,-280.31 661.85,-280.31 664.22,-280.84 664.22,-280.84 664.41,-280.89 664.79,-280.98 664.98,-281.02 664.98,-281.02 667.17,-281.58 667.17,-281.58 667.36,-281.63 667.74,-281.73 667.93,-281.79 667.93,-281.79 669.93,-282.37 669.93,-282.37 670.11,-282.42 670.49,-282.54 670.67,-282.6 670.67,-282.6 672.48,-283.2 672.48,-283.2 672.66,-283.26 673.03,-283.39 673.21,-283.46 673.21,-283.46 674.81,-284.07 674.81,-284.07 674.99,-284.14 675.35,-284.28 675.53,-284.36 675.53,-284.36 676.93,-284.98 676.93,-284.98 677.11,-285.05 677.46,-285.22 677.64,-285.31 677.64,-285.31 678.83,-285.92 678.83,-285.92 679,-286.01 679.34,-286.2 679.51,-286.3 679.51,-286.3 680.5,-286.9 680.5,-286.9 680.67,-287 681,-287.21 681.15,-287.33 681.15,-287.33 681.96,-287.9 681.96,-287.9 682.11,-288.02 682.42,-288.26 682.56,-288.39 682.56,-288.39 683.18,-288.94 683.18,-288.94 683.33,-289.06 683.61,-289.34 683.73,-289.48 683.73,-289.48 684.19,-289.99 684.19,-289.99 684.32,-290.14 684.56,-290.44 684.67,-290.61 684.67,-290.61 684.98,-291.07 684.98,-291.07 685.09,-291.23 685.28,-291.57 685.36,-291.75 685.36,-291.75 685.55,-292.18 685.55,-292.18 685.63,-292.35 685.76,-292.72 685.81,-292.91 685.81,-292.91 685.92,-293.31 685.92,-293.31 685.96,-293.49 686.03,-293.88 686.04,-294.07 686.04,-294.07 686.07,-294.46 686.07,-294.46 686.08,-294.65 686.07,-295.04 686.05,-295.24 686.05,-295.24 686,-295.64 686,-295.64 685.98,-295.83 685.91,-296.21 685.85,-296.4 685.85,-296.4 685.73,-296.84 685.73,-296.84 685.68,-297.03 685.54,-297.39 685.46,-297.57 685.46,-297.57 685.24,-298.05 685.24,-298.05 685.16,-298.23 684.98,-298.57 684.88,-298.74 684.88,-298.74 684.56,-299.26 684.56,-299.26 684.45,-299.43 684.23,-299.75 684.12,-299.91 684.12,-299.91 683.68,-300.48 683.68,-300.48 683.56,-300.63 683.31,-300.93 683.17,-301.07 683.17,-301.07 682.61,-301.69 682.61,-301.69 682.48,-301.83 682.2,-302.11 682.06,-302.24 682.06,-302.24 681.37,-302.88 681.37,-302.88 681.23,-303.02 680.94,-303.28 680.79,-303.4 680.79,-303.4 679.97,-304.07 679.97,-304.07 679.82,-304.19 679.52,-304.43 679.36,-304.55 679.36,-304.55 678.42,-305.24 678.42,-305.24 678.27,-305.35 677.95,-305.58 677.78,-305.69 677.78,-305.69 676.73,-306.39 676.73,-306.39 676.57,-306.5 676.24,-306.7 676.07,-306.81 676.07,-306.81 674.91,-307.51 674.91,-307.51 674.74,-307.62 674.4,-307.81 674.23,-307.91 674.23,-307.91 672.96,-308.62 672.96,-308.62 672.79,-308.71 672.45,-308.9 672.28,-308.99 672.28,-308.99 670.91,-309.69 670.91,-309.69 670.73,-309.78 670.38,-309.95 670.21,-310.04 670.21,-310.04 668.75,-310.73 668.75,-310.73 668.57,-310.82 668.22,-310.98 668.04,-311.06 668.04,-311.06 666.49,-311.74 666.49,-311.74 666.32,-311.82 665.96,-311.98 665.78,-312.05 665.78,-312.05 664.16,-312.72 664.16,-312.72 663.98,-312.79 663.62,-312.94 663.43,-313.01 663.43,-313.01 661.75,-313.65 661.75,-313.65 661.56,-313.72 661.2,-313.86 661.02,-313.92 661.02,-313.92 659.27,-314.55 659.27,-314.55 659.08,-314.61 658.71,-314.74 658.53,-314.8 658.53,-314.8 656.73,-315.4 656.73,-315.4 656.54,-315.46 656.17,-315.58 655.98,-315.64 655.98,-315.64 654.13,-316.21 654.13,-316.21 653.94,-316.26 653.57,-316.37 653.38,-316.43 653.38,-316.43 651.49,-316.97 651.49,-316.97 651.3,-317.02 650.93,-317.12 650.74,-317.17 650.74,-317.17 648.81,-317.67 648.81,-317.67 648.62,-317.72 648.24,-317.82 648.05,-317.86 648.05,-317.86 646.09,-318.33 646.09,-318.33 645.9,-318.38 645.52,-318.46 645.33,-318.5 645.33,-318.5 643.34,-318.94 643.34,-318.94 643.15,-318.98 642.77,-319.06 642.58,-319.09 642.58,-319.09 640.57,-319.49 640.57,-319.49 640.38,-319.52 639.99,-319.59 639.8,-319.63 639.8,-319.63 637.77,-319.98 637.77,-319.98 637.58,-320.01 637.2,-320.07 637,-320.1 637,-320.1 634.96,-320.41 634.96,-320.41 634.77,-320.44 634.38,-320.5 634.19,-320.52 634.19,-320.52 632.13,-320.79 632.13,-320.79 631.94,-320.82 631.55,-320.86 631.36,-320.88 631.36,-320.88 629.29,-321.11 629.29,-321.11 629.09,-321.13 628.71,-321.17 628.51,-321.18 628.51,-321.18 626.44,-321.36 626.44,-321.36 626.24,-321.38 625.86,-321.41 625.66,-321.42 625.66,-321.42 623.58,-321.56 623.58,-321.56 623.39,-321.57 623,-321.59 622.8,-321.6 622.8,-321.6 620.72,-321.69 620.72,-321.69 620.52,-321.7 620.14,-321.71 619.94,-321.72 619.94,-321.72 617.85,-321.76 617.85,-321.76 617.66,-321.77 617.27,-321.77 617.07,-321.77 617.07,-321.77 614.99,-321.77 614.99,-321.77 614.79,-321.77 614.4,-321.77 614.21,-321.76 614.21,-321.76 612.12,-321.72 612.12,-321.72 611.93,-321.71 611.54,-321.7 611.34,-321.69 611.34,-321.69 609.26,-321.6 609.26,-321.6 609.06,-321.59 608.68,-321.57 608.48,-321.56 608.48,-321.56 606.4,-321.42 606.4,-321.42 606.21,-321.41 605.82,-321.38 605.62,-321.36 605.62,-321.36 603.55,-321.18 603.55,-321.18 603.36,-321.17 602.97,-321.13 602.77,-321.11 602.77,-321.11 600.71,-320.88 600.71,-320.88 600.51,-320.86 600.13,-320.82 599.93,-320.79 599.93,-320.79 597.88,-320.52 597.88,-320.52 597.68,-320.5 597.3,-320.44 597.1,-320.41 597.1,-320.41 595.06,-320.1 595.06,-320.1 594.87,-320.07 594.48,-320.01 594.29,-319.98 594.29,-319.98 592.26,-319.63 592.26,-319.63 592.07,-319.59 591.69,-319.52 591.49,-319.49 591.49,-319.49 589.48,-319.09 589.48,-319.09 589.29,-319.06 588.91,-318.98 588.72,-318.94 588.72,-318.94 586.73,-318.5 586.73,-318.5 586.54,-318.46 586.16,-318.38 585.97,-318.33 585.97,-318.33 584.01,-317.86 584.01,-317.86 583.82,-317.82 583.44,-317.72 583.26,-317.67 583.26,-317.67 581.32,-317.17 581.32,-317.17 581.14,-317.12 580.76,-317.02 580.57,-316.97 580.57,-316.97 578.68,-316.43 578.68,-316.43 578.49,-316.37 578.12,-316.26 577.93,-316.21 577.93,-316.21 576.08,-315.64 576.08,-315.64 575.89,-315.58 575.52,-315.46 575.34,-315.4 575.34,-315.4 573.53,-314.8 573.53,-314.8 573.35,-314.74 572.98,-314.61 572.8,-314.55 572.8,-314.55 571.05,-313.92 571.05,-313.92 570.86,-313.86 570.5,-313.72 570.32,-313.65 570.32,-313.65 568.63,-313.01 568.63,-313.01 568.45,-312.94 568.08,-312.79 567.9,-312.72 567.9,-312.72 566.28,-312.05 566.28,-312.05 566.1,-311.98 565.75,-311.82 565.57,-311.74 565.57,-311.74 564.02,-311.06 564.02,-311.06 563.85,-310.98 563.49,-310.82 563.32,-310.73 563.32,-310.73 561.86,-310.04 561.86,-310.04 561.68,-309.95 561.33,-309.78 561.16,-309.69 561.16,-309.69 559.79,-308.99 559.79,-308.99 559.61,-308.9 559.27,-308.71 559.1,-308.62 559.1,-308.62 557.83,-307.91 557.83,-307.91 557.66,-307.81 557.32,-307.62 557.16,-307.51 557.16,-307.51 555.99,-306.81 555.99,-306.81 555.82,-306.7 555.49,-306.5 555.33,-306.39 555.33,-306.39 554.28,-305.69 554.28,-305.69 554.12,-305.58 553.8,-305.35 553.64,-305.24 553.64,-305.24 552.7,-304.55 552.7,-304.55 552.55,-304.43 552.24,-304.19 552.09,-304.07 552.09,-304.07 551.27,-303.4 551.27,-303.4 551.12,-303.28 550.83,-303.02 550.69,-302.88 550.69,-302.88 550,-302.24 550,-302.24 549.86,-302.11 549.58,-301.83 549.45,-301.69 549.45,-301.69 548.89,-301.07 548.89,-301.07 548.76,-300.93 548.51,-300.63 548.39,-300.48 548.39,-300.48 547.95,-299.91 547.95,-299.91 547.83,-299.75 547.61,-299.43 547.51,-299.26 547.51,-299.26 547.18,-298.74 547.18,-298.74 547.08,-298.57 546.9,-298.23 546.82,-298.05 546.82,-298.05 546.6,-297.57 546.6,-297.57 546.52,-297.39 546.39,-297.03 546.33,-296.84 546.33,-296.84 546.21,-296.4 546.21,-296.4 546.15,-296.21 546.08,-295.83 546.06,-295.64 546.06,-295.64 546.01,-295.24 546.01,-295.24 545.99,-295.04 545.98,-294.65 546,-294.46 546,-294.46 546.02,-294.07 546.02,-294.07 546.04,-293.88 546.1,-293.49 546.15,-293.31 546.15,-293.31 546.25,-292.91 546.25,-292.91 546.3,-292.72 546.43,-292.35 546.51,-292.18 546.51,-292.18 546.7,-291.75 546.7,-291.75 546.79,-291.57 546.98,-291.23 547.08,-291.07 547.08,-291.07 547.4,-290.61 547.4,-290.61 547.5,-290.44 547.74,-290.14 547.87,-289.99 547.87,-289.99 548.33,-289.48 548.33,-289.48 548.46,-289.34 548.73,-289.06 548.88,-288.94 548.88,-288.94 549.5,-288.39 549.5,-288.39 549.64,-288.26 549.95,-288.02 550.11,-287.9 550.11,-287.9 550.91,-287.33 550.91,-287.33 551.07,-287.21 551.39,-287 551.56,-286.9 551.56,-286.9 552.55,-286.3 552.55,-286.3 552.72,-286.2 553.06,-286.01 553.23,-285.92 553.23,-285.92 554.43,-285.31 554.43,-285.31 554.6,-285.22 554.95,-285.05 555.13,-284.98 555.13,-284.98 556.53,-284.36 556.53,-284.36 556.71,-284.28 557.07,-284.14 557.25,-284.07 557.25,-284.07 558.85,-283.46 558.85,-283.46 559.03,-283.39 559.4,-283.26 559.59,-283.2 559.59,-283.2 561.39,-282.6 561.39,-282.6 561.58,-282.54 561.95,-282.42 562.13,-282.37 562.13,-282.37 564.14,-281.79 564.14,-281.79 564.32,-281.73 564.7,-281.63 564.89,-281.58 564.89,-281.58 567.08,-281.02 567.08,-281.02 567.27,-280.98 567.65,-280.89 567.84,-280.84 567.84,-280.84 570.21,-280.31 570.21,-280.31 570.4,-280.27 570.79,-280.19 570.98,-280.15 570.98,-280.15 573.53,-279.65 573.53,-279.65 573.72,-279.62 574.1,-279.54 574.29,-279.51 574.29,-279.51 577,-279.05 577,-279.05 577.2,-279.01 577.58,-278.95 577.77,-278.92 577.77,-278.92 580.64,-278.5 580.64,-278.5 580.83,-278.47 581.22,-278.42 581.41,-278.39 581.41,-278.39 584.41,-278 584.41,-278 584.61,-277.98 584.99,-277.93 585.19,-277.91 585.19,-277.91 588.31,-277.57 588.31,-277.57 588.51,-277.55 588.89,-277.51 589.09,-277.49 589.09,-277.49 592.33,-277.19 592.33,-277.19 592.52,-277.18 592.91,-277.14 593.1,-277.13 593.1,-277.13 596.43,-276.88 596.43,-276.88 596.63,-276.87 597.02,-276.84 597.21,-276.83 597.21,-276.83 600.62,-276.63 600.62,-276.63 600.81,-276.61 601.2,-276.59 601.4,-276.59 601.4,-276.59 604.87,-276.43 604.87,-276.43 605.06,-276.42 605.45,-276.41 605.64,-276.4 605.64,-276.4 609.16,-276.3 609.16,-276.3 609.35,-276.3 609.74,-276.29 609.94,-276.29 609.94,-276.29 613.48,-276.23 613.48,-276.23 613.67,-276.23 614.06,-276.23 614.26,-276.23 614.26,-276.23 617.81,-276.23 617.81,-276.23 618,-276.23 618.39,-276.23 618.59,-276.23 618.59,-276.23 622.12,-276.29 622.12,-276.29 622.32,-276.29 622.71,-276.3 622.9,-276.3"/>
<text text-anchor="middle" x="616.03" y="-302.2" font-family="STKaiti" font-size="11.00">Ali/Tencent </text>
<text text-anchor="middle" x="616.03" y="-290.2" font-family="STKaiti" font-size="11.00">自学习模型 API</text>
</g>
<!-- b_url&#45;&gt;c1 -->
<g id="edge7" class="edge">
<title>b_url&#45;&gt;c1</title>
<path fill="none" stroke="black" d="M431.26,-319.93C461.82,-316.45 506.7,-311.34 544.46,-307.04"/>
<polygon fill="black" stroke="black" points="544.86,-310.51 554.4,-305.9 544.07,-303.56 544.86,-310.51"/>
</g>
<!-- b_taskid&#45;&gt;a2 -->
<g id="edge10" class="edge">
<title>b_taskid:w&#45;&gt;a2</title>
<path fill="none" stroke="black" d="M362.5,-252C266.7,-252 153.8,-252 97.02,-252"/>
<polygon fill="black" stroke="black" points="96.76,-248.5 86.76,-252 96.76,-255.5 96.76,-248.5"/>
<text text-anchor="middle" x="240" y="-256" font-family="STKaiti" font-size="10.00">通知前端转录完成</text>
</g>
<!-- b_taskid&#45;&gt;b_query -->
<g id="edge2" class="edge">
<title>b_taskid&#45;&gt;b_query</title>
</g>
<!-- b_mysql&#45;&gt;b_train -->
<g id="edge17" class="edge">
<title>b_mysql&#45;&gt;b_train</title>
<path fill="none" stroke="black" d="M375.65,-206.3C369.95,-212.22 363.66,-218.84 358,-225 341.16,-243.31 340.56,-251.63 321,-267 317.27,-269.93 313.29,-272.76 309.2,-275.47"/>
<polygon fill="black" stroke="black" points="307.24,-272.56 300.64,-280.85 310.97,-278.49 307.24,-272.56"/>
</g>
<!-- s_label -->
<g id="node15" class="node">
<title>s_label</title>
<path fill="none" stroke="white" d="M633.53,-376C633.53,-376 598.53,-376 598.53,-376 592.53,-376 586.53,-370 586.53,-364 586.53,-364 586.53,-352 586.53,-352 586.53,-346 592.53,-340 598.53,-340 598.53,-340 633.53,-340 633.53,-340 639.53,-340 645.53,-346 645.53,-352 645.53,-352 645.53,-364 645.53,-364 645.53,-370 639.53,-376 633.53,-376"/>
<text text-anchor="middle" x="616.03" y="-354.6" font-family="Serif" font-size="13.00">Serving</text>
</g>
<!-- c1&#45;&gt;b_taskid -->
<g id="edge9" class="edge">
<title>c1:sw&#45;&gt;b_taskid</title>
<path fill="none" stroke="black" d="M595.03,-277C553.69,-235.66 481.06,-237.71 435.76,-244.07"/>
<polygon fill="black" stroke="black" points="435.05,-240.64 425.7,-245.61 436.12,-247.55 435.05,-240.64"/>
<text text-anchor="middle" x="488.5" y="-247" font-family="STKaiti" font-size="10.00">通知后端转录完成</text>
</g>
</g>
</svg>
