<?xml version="1.0" encoding="UTF-8" standalone="no"?>
<!DOCTYPE svg PUBLIC "-//W3C//DTD SVG 1.1//EN"
 "http://www.w3.org/Graphics/SVG/1.1/DTD/svg11.dtd">
<!-- Generated by graphviz version 2.44.0 (20200408.0750)
 -->
<!-- Title: G Pages: 1 -->
<svg width="830pt" height="472pt"
 viewBox="0.00 0.00 830.06 472.00" xmlns="http://www.w3.org/2000/svg" xmlns:xlink="http://www.w3.org/1999/xlink">
<g id="graph0" class="graph" transform="scale(1 1) rotate(0) translate(36 436)">
<title>G</title>
<polygon fill="white" stroke="transparent" points="-36,36 -36,-436 794.06,-436 794.06,36 -36,36"/>
<!-- f_label -->
<g id="node1" class="node">
<title>f_label</title>
<path fill="none" stroke="white" d="M107,-36C107,-36 12,-36 12,-36 6,-36 0,-30 0,-24 0,-24 0,-12 0,-12 0,-6 6,0 12,0 12,0 107,0 107,0 113,0 119,-6 119,-12 119,-12 119,-24 119,-24 119,-30 113,-36 107,-36"/>
<text text-anchor="middle" x="59.5" y="-14.6" font-family="Serif" font-size="13.00">前端（用户行为）</text>
</g>
<!-- b_label -->
<g id="node7" class="node">
<title>b_label</title>
<path fill="none" stroke="white" d="M271,-36C271,-36 241,-36 241,-36 235,-36 229,-30 229,-24 229,-24 229,-12 229,-12 229,-6 235,0 241,0 241,0 271,0 271,0 277,0 283,-6 283,-12 283,-12 283,-24 283,-24 283,-30 277,-36 271,-36"/>
<text text-anchor="middle" x="256" y="-14.6" font-family="Serif" font-size="13.00">后端</text>
</g>
<!-- f_label&#45;&gt;b_label -->
<g id="edge4" class="edge">
<title>f_label&#45;&gt;b_label</title>
</g>
<!-- a1 -->
<g id="node2" class="node">
<title>a1</title>
<path fill="none" stroke="black" d="M78.5,-400C78.5,-400 40.5,-400 40.5,-400 34.5,-400 28.5,-394 28.5,-388 28.5,-388 28.5,-376 28.5,-376 28.5,-370 34.5,-364 40.5,-364 40.5,-364 78.5,-364 78.5,-364 84.5,-364 90.5,-370 90.5,-376 90.5,-376 90.5,-388 90.5,-388 90.5,-394 84.5,-400 78.5,-400"/>
<text text-anchor="middle" x="59.5" y="-379.2" font-family="STKaiti" font-size="11.00">面试结果</text>
</g>
<!-- b_audiofile -->
<g id="node8" class="node">
<title>b_audiofile</title>
<path fill="none" stroke="black" d="M275,-400C275,-400 237,-400 237,-400 231,-400 225,-394 225,-388 225,-388 225,-376 225,-376 225,-370 231,-364 237,-364 237,-364 275,-364 275,-364 281,-364 287,-370 287,-376 287,-376 287,-388 287,-388 287,-394 281,-400 275,-400"/>
<text text-anchor="middle" x="256" y="-379.2" font-family="STKaiti" font-size="11.00">音频文件</text>
</g>
<!-- a1&#45;&gt;b_audiofile -->
<g id="edge5" class="edge">
<title>a1&#45;&gt;b_audiofile</title>
<path fill="none" stroke="black" d="M90.89,-382C124.15,-382 177.62,-382 214.44,-382"/>
<polygon fill="black" stroke="black" points="214.82,-385.5 224.82,-382 214.82,-378.5 214.82,-385.5"/>
<text text-anchor="middle" x="147" y="-385" font-family="STKaiti" font-size="10.00">音频提取</text>
</g>
<!-- a2 -->
<g id="node3" class="node">
<title>a2</title>
<path fill="none" stroke="black" d="M74.5,-282C74.5,-282 44.5,-282 44.5,-282 38.5,-282 32.5,-276 32.5,-270 32.5,-270 32.5,-258 32.5,-258 32.5,-252 38.5,-246 44.5,-246 44.5,-246 74.5,-246 74.5,-246 80.5,-246 86.5,-252 86.5,-258 86.5,-258 86.5,-270 86.5,-270 86.5,-276 80.5,-282 74.5,-282"/>
<text text-anchor="middle" x="59.5" y="-261.2" font-family="STKaiti" font-size="11.00">刷新</text>
</g>
<!-- b_query -->
<g id="node10" class="node">
<title>b_query</title>
<path fill="none" stroke="black" d="M291.5,-234C291.5,-234 220.5,-234 220.5,-234 214.5,-234 208.5,-228 208.5,-222 208.5,-222 208.5,-210 208.5,-210 208.5,-204 214.5,-198 220.5,-198 220.5,-198 291.5,-198 291.5,-198 297.5,-198 303.5,-204 303.5,-210 303.5,-210 303.5,-222 303.5,-222 303.5,-228 297.5,-234 291.5,-234"/>
<text text-anchor="middle" x="256" y="-213.2" font-family="STKaiti" font-size="11.00">查询、组装数据</text>
</g>
<!-- a2&#45;&gt;b_query -->
<g id="edge12" class="edge">
<title>a2:s&#45;&gt;b_query</title>
<path fill="none" stroke="black" d="M59.5,-245C59.5,-238.33 112.4,-237.95 119,-237 145.07,-233.24 173.91,-228.82 198.3,-225.01"/>
<polygon fill="black" stroke="black" points="199.12,-228.42 208.46,-223.42 198.03,-221.51 199.12,-228.42"/>
</g>
<!-- a3 -->
<g id="node4" class="node">
<title>a3</title>
<path fill="none" stroke="black" d="M78.5,-228C78.5,-228 40.5,-228 40.5,-228 34.5,-228 28.5,-222 28.5,-216 28.5,-216 28.5,-204 28.5,-204 28.5,-198 34.5,-192 40.5,-192 40.5,-192 78.5,-192 78.5,-192 84.5,-192 90.5,-198 90.5,-204 90.5,-204 90.5,-216 90.5,-216 90.5,-222 84.5,-228 78.5,-228"/>
<text text-anchor="middle" x="59.5" y="-207.2" font-family="STKaiti" font-size="11.00">转录结果</text>
</g>
<!-- a4 -->
<g id="node5" class="node">
<title>a4</title>
<path fill="none" stroke="black" d="M78.5,-156C78.5,-156 40.5,-156 40.5,-156 34.5,-156 28.5,-150 28.5,-144 28.5,-144 28.5,-132 28.5,-132 28.5,-126 34.5,-120 40.5,-120 40.5,-120 78.5,-120 78.5,-120 84.5,-120 90.5,-126 90.5,-132 90.5,-132 90.5,-144 90.5,-144 90.5,-150 84.5,-156 78.5,-156"/>
<text text-anchor="middle" x="59.5" y="-135.2" font-family="STKaiti" font-size="11.00">划词修正</text>
</g>
<!-- a3&#45;&gt;a4 -->
<g id="edge14" class="edge">
<title>a3&#45;&gt;a4</title>
<path fill="none" stroke="black" d="M59.5,-191.95C59.5,-183.41 59.5,-174.86 59.5,-166.31"/>
<polygon fill="black" stroke="black" points="63,-166.28 59.5,-156.28 56,-166.28 63,-166.28"/>
</g>
<!-- b_updatesql -->
<g id="node11" class="node">
<title>b_updatesql</title>
<path fill="none" stroke="black" d="M290.5,-162C290.5,-162 221.5,-162 221.5,-162 215.5,-162 209.5,-156 209.5,-150 209.5,-150 209.5,-138 209.5,-138 209.5,-132 215.5,-126 221.5,-126 221.5,-126 290.5,-126 290.5,-126 296.5,-126 302.5,-132 302.5,-138 302.5,-138 302.5,-150 302.5,-150 302.5,-156 296.5,-162 290.5,-162"/>
<text text-anchor="middle" x="256" y="-141.2" font-family="STKaiti" font-size="11.00">更新 MySQL, ES</text>
</g>
<!-- a4&#45;&gt;b_updatesql -->
<g id="edge15" class="edge">
<title>a4&#45;&gt;b_updatesql</title>
<path fill="none" stroke="black" d="M90.89,-138.94C119.77,-139.83 163.9,-141.19 199.13,-142.28"/>
<polygon fill="black" stroke="black" points="199.17,-145.78 209.28,-142.59 199.39,-138.78 199.17,-145.78"/>
</g>
<!-- a5 -->
<g id="node6" class="node">
<title>a5</title>
<path fill="none" stroke="black" d="M89.5,-90C89.5,-90 29.5,-90 29.5,-90 23.5,-90 17.5,-84 17.5,-78 17.5,-78 17.5,-66 17.5,-66 17.5,-60 23.5,-54 29.5,-54 29.5,-54 89.5,-54 89.5,-54 95.5,-54 101.5,-60 101.5,-66 101.5,-66 101.5,-78 101.5,-78 101.5,-84 95.5,-90 89.5,-90"/>
<text text-anchor="middle" x="59.5" y="-69.2" font-family="STKaiti" font-size="11.00">修改页面样式</text>
</g>
<!-- tmpdot -->
<g id="node18" class="node">
<title>tmpdot</title>
<ellipse fill="black" stroke="black" cx="432.5" cy="-361" rx="0" ry="0"/>
</g>
<!-- b_audiofile&#45;&gt;tmpdot -->
<g id="edge6" class="edge">
<title>b_audiofile&#45;&gt;tmpdot</title>
<path fill="none" stroke="black" d="M287.1,-378.27C312.69,-375.37 350.44,-371.72 383.5,-371"/>
</g>
<!-- b_train -->
<g id="node9" class="node">
<title>b_train</title>
<polygon fill="none" stroke="black" points="331,-346 175,-346 175,-290 337,-290 337,-340 331,-346"/>
<polyline fill="none" stroke="black" points="331,-346 331,-340 "/>
<polyline fill="none" stroke="black" points="337,-340 331,-340 "/>
<text text-anchor="middle" x="256" y="-333.2" font-family="STKaiti" font-size="11.00">丰富训练文本：</text>
<text text-anchor="middle" x="256" y="-321.2" font-family="STKaiti" font-size="11.00">1. 从【划词修正】中提取语句</text>
<text text-anchor="middle" x="256" y="-309.2" font-family="STKaiti" font-size="11.00">添加到训练文本中</text>
<text text-anchor="middle" x="256" y="-297.2" font-family="STKaiti" font-size="11.00">2. 手动构造语句</text>
</g>
<!-- b_train&#45;&gt;tmpdot -->
<g id="edge7" class="edge">
<title>b_train&#45;&gt;tmpdot</title>
<path fill="none" stroke="black" d="M317.68,-346.03C346.45,-358.83 376.15,-371.16 383.5,-371"/>
<path fill="none" stroke="black" d="M385.5,-371C405.97,-370.56 430.42,-361.59 431.93,-361.03"/>
</g>
<!-- b_query&#45;&gt;a3 -->
<g id="edge13" class="edge">
<title>b_query&#45;&gt;a3</title>
<path fill="none" stroke="black" d="M208.16,-214.56C175.45,-213.55 132.21,-212.21 100.99,-211.25"/>
<polygon fill="black" stroke="black" points="100.99,-207.75 90.89,-210.94 100.78,-214.74 100.99,-207.75"/>
</g>
<!-- b_query&#45;&gt;b_updatesql -->
<g id="edge3" class="edge">
<title>b_query&#45;&gt;b_updatesql</title>
</g>
<!-- b_suc -->
<g id="node12" class="node">
<title>b_suc</title>
<path fill="none" stroke="black" d="M286,-90C286,-90 226,-90 226,-90 220,-90 214,-84 214,-78 214,-78 214,-66 214,-66 214,-60 220,-54 226,-54 226,-54 286,-54 286,-54 292,-54 298,-60 298,-66 298,-66 298,-78 298,-78 298,-84 292,-90 286,-90"/>
<text text-anchor="middle" x="256" y="-75.2" font-family="STKaiti" font-size="11.00">后台修改成功</text>
<text text-anchor="middle" x="256" y="-63.2" font-family="STKaiti" font-size="11.00">返回结果码</text>
</g>
<!-- b_updatesql&#45;&gt;b_suc -->
<g id="edge16" class="edge">
<title>b_updatesql&#45;&gt;b_suc</title>
<path fill="none" stroke="black" d="M256,-125.95C256,-117.41 256,-108.86 256,-100.31"/>
<polygon fill="black" stroke="black" points="259.5,-100.28 256,-90.28 252.5,-100.28 259.5,-100.28"/>
</g>
<!-- b_mysql -->
<g id="node15" class="node">
<title>b_mysql</title>
<path fill="lightgrey" stroke="black" d="M520.5,-199.73C520.5,-201.53 505.26,-203 486.5,-203 467.74,-203 452.5,-201.53 452.5,-199.73 452.5,-199.73 452.5,-170.27 452.5,-170.27 452.5,-168.47 467.74,-167 486.5,-167 505.26,-167 520.5,-168.47 520.5,-170.27 520.5,-170.27 520.5,-199.73 520.5,-199.73"/>
<path fill="none" stroke="black" d="M520.5,-199.73C520.5,-197.92 505.26,-196.45 486.5,-196.45 467.74,-196.45 452.5,-197.92 452.5,-199.73"/>
<text text-anchor="middle" x="486.5" y="-182.2" font-family="STKaiti" font-size="11.00" fill="blue">MySQL, ES</text>
</g>
<!-- b_updatesql&#45;&gt;b_mysql -->
<g id="edge18" class="edge">
<title>b_updatesql&#45;&gt;b_mysql</title>
<path fill="none" stroke="black" d="M302.69,-152.2C343.43,-159.51 402.61,-170.13 442.51,-177.29"/>
<polygon fill="black" stroke="black" points="442,-180.75 452.46,-179.07 443.24,-173.86 442,-180.75"/>
</g>
<!-- b_suc&#45;&gt;a5 -->
<g id="edge17" class="edge">
<title>b_suc&#45;&gt;a5</title>
<path fill="none" stroke="black" d="M213.81,-72C184.04,-72 143.63,-72 111.77,-72"/>
<polygon fill="black" stroke="black" points="111.75,-68.5 101.75,-72 111.75,-75.5 111.75,-68.5"/>
</g>
<!-- b_url -->
<g id="node13" class="node">
<title>b_url</title>
<path fill="none" stroke="black" d="M511,-352C511,-352 462,-352 462,-352 456,-352 450,-346 450,-340 450,-340 450,-328 450,-328 450,-322 456,-316 462,-316 462,-316 511,-316 511,-316 517,-316 523,-322 523,-328 523,-328 523,-340 523,-340 523,-346 517,-352 511,-352"/>
<text text-anchor="middle" x="486.5" y="-337.2" font-family="STKaiti" font-size="11.00">音频 URL +</text>
<text text-anchor="middle" x="486.5" y="-325.2" font-family="STKaiti" font-size="11.00"> 训练文本</text>
</g>
<!-- b_taskid -->
<g id="node14" class="node">
<title>b_taskid</title>
<path fill="none" stroke="black" d="M505.5,-280C505.5,-280 467.5,-280 467.5,-280 461.5,-280 455.5,-274 455.5,-268 455.5,-268 455.5,-256 455.5,-256 455.5,-250 461.5,-244 467.5,-244 467.5,-244 505.5,-244 505.5,-244 511.5,-244 517.5,-250 517.5,-256 517.5,-256 517.5,-268 517.5,-268 517.5,-274 511.5,-280 505.5,-280"/>
<text text-anchor="middle" x="486.5" y="-265.2" font-family="STKaiti" font-size="11.00">转录结果</text>
<text text-anchor="middle" x="486.5" y="-253.2" font-family="STKaiti" font-size="11.00">Task_ID</text>
</g>
<!-- b_url&#45;&gt;b_taskid -->
<g id="edge1" class="edge">
<title>b_url&#45;&gt;b_taskid</title>
</g>
<!-- c1 -->
<g id="node17" class="node">
<title>c1</title>
<path fill="none" stroke="black" d="M694.9,-286.3C694.9,-286.3 698.42,-286.4 698.42,-286.4 698.61,-286.41 699,-286.42 699.2,-286.43 699.2,-286.43 702.67,-286.59 702.67,-286.59 702.86,-286.59 703.25,-286.61 703.44,-286.63 703.44,-286.63 706.85,-286.83 706.85,-286.83 707.05,-286.84 707.44,-286.87 707.63,-286.88 707.63,-286.88 710.96,-287.13 710.96,-287.13 711.15,-287.14 711.54,-287.18 711.74,-287.19 711.74,-287.19 714.97,-287.49 714.97,-287.49 715.17,-287.51 715.56,-287.55 715.75,-287.57 715.75,-287.57 718.88,-287.91 718.88,-287.91 719.07,-287.93 719.46,-287.98 719.65,-288 719.65,-288 722.65,-288.39 722.65,-288.39 722.85,-288.42 723.23,-288.47 723.42,-288.5 723.42,-288.5 726.29,-288.92 726.29,-288.92 726.48,-288.95 726.87,-289.01 727.06,-289.05 727.06,-289.05 729.77,-289.51 729.77,-289.51 729.96,-289.54 730.35,-289.62 730.54,-289.65 730.54,-289.65 733.09,-290.15 733.09,-290.15 733.28,-290.19 733.66,-290.27 733.85,-290.31 733.85,-290.31 736.22,-290.84 736.22,-290.84 736.41,-290.89 736.79,-290.98 736.98,-291.02 736.98,-291.02 739.17,-291.58 739.17,-291.58 739.36,-291.63 739.74,-291.73 739.93,-291.79 739.93,-291.79 741.93,-292.37 741.93,-292.37 742.11,-292.42 742.49,-292.54 742.67,-292.6 742.67,-292.6 744.48,-293.2 744.48,-293.2 744.66,-293.26 745.03,-293.39 745.21,-293.46 745.21,-293.46 746.81,-294.07 746.81,-294.07 746.99,-294.14 747.35,-294.28 747.53,-294.36 747.53,-294.36 748.93,-294.98 748.93,-294.98 749.11,-295.05 749.46,-295.22 749.64,-295.31 749.64,-295.31 750.83,-295.92 750.83,-295.92 751,-296.01 751.34,-296.2 751.51,-296.3 751.51,-296.3 752.5,-296.9 752.5,-296.9 752.67,-297 753,-297.21 753.15,-297.33 753.15,-297.33 753.96,-297.9 753.96,-297.9 754.11,-298.02 754.42,-298.26 754.56,-298.39 754.56,-298.39 755.18,-298.94 755.18,-298.94 755.33,-299.06 755.61,-299.34 755.73,-299.48 755.73,-299.48 756.19,-299.99 756.19,-299.99 756.32,-300.14 756.56,-300.44 756.67,-300.61 756.67,-300.61 756.98,-301.07 756.98,-301.07 757.09,-301.23 757.28,-301.57 757.36,-301.75 757.36,-301.75 757.55,-302.18 757.55,-302.18 757.63,-302.35 757.76,-302.72 757.81,-302.91 757.81,-302.91 757.92,-303.31 757.92,-303.31 757.96,-303.49 758.03,-303.88 758.04,-304.07 758.04,-304.07 758.07,-304.46 758.07,-304.46 758.08,-304.65 758.07,-305.04 758.05,-305.24 758.05,-305.24 758,-305.64 758,-305.64 757.98,-305.83 757.91,-306.21 757.85,-306.4 757.85,-306.4 757.73,-306.84 757.73,-306.84 757.68,-307.03 757.54,-307.39 757.46,-307.57 757.46,-307.57 757.24,-308.05 757.24,-308.05 757.16,-308.23 756.98,-308.57 756.88,-308.74 756.88,-308.74 756.56,-309.26 756.56,-309.26 756.45,-309.43 756.23,-309.75 756.12,-309.91 756.12,-309.91 755.68,-310.48 755.68,-310.48 755.56,-310.63 755.31,-310.93 755.17,-311.07 755.17,-311.07 754.61,-311.69 754.61,-311.69 754.48,-311.83 754.2,-312.11 754.06,-312.24 754.06,-312.24 753.37,-312.88 753.37,-312.88 753.23,-313.02 752.94,-313.28 752.79,-313.4 752.79,-313.4 751.97,-314.07 751.97,-314.07 751.82,-314.19 751.52,-314.43 751.36,-314.55 751.36,-314.55 750.42,-315.24 750.42,-315.24 750.27,-315.35 749.95,-315.58 749.78,-315.69 749.78,-315.69 748.73,-316.39 748.73,-316.39 748.57,-316.5 748.24,-316.7 748.07,-316.81 748.07,-316.81 746.91,-317.51 746.91,-317.51 746.74,-317.62 746.4,-317.81 746.23,-317.91 746.23,-317.91 744.96,-318.62 744.96,-318.62 744.79,-318.71 744.45,-318.9 744.28,-318.99 744.28,-318.99 742.91,-319.69 742.91,-319.69 742.73,-319.78 742.38,-319.95 742.21,-320.04 742.21,-320.04 740.75,-320.73 740.75,-320.73 740.57,-320.82 740.22,-320.98 740.04,-321.06 740.04,-321.06 738.49,-321.74 738.49,-321.74 738.32,-321.82 737.96,-321.98 737.78,-322.05 737.78,-322.05 736.16,-322.72 736.16,-322.72 735.98,-322.79 735.62,-322.94 735.43,-323.01 735.43,-323.01 733.75,-323.65 733.75,-323.65 733.56,-323.72 733.2,-323.86 733.02,-323.92 733.02,-323.92 731.27,-324.55 731.27,-324.55 731.08,-324.61 730.71,-324.74 730.53,-324.8 730.53,-324.8 728.73,-325.4 728.73,-325.4 728.54,-325.46 728.17,-325.58 727.98,-325.64 727.98,-325.64 726.13,-326.21 726.13,-326.21 725.94,-326.26 725.57,-326.37 725.38,-326.43 725.38,-326.43 723.49,-326.97 723.49,-326.97 723.3,-327.02 722.93,-327.12 722.74,-327.17 722.74,-327.17 720.81,-327.67 720.81,-327.67 720.62,-327.72 720.24,-327.82 720.05,-327.86 720.05,-327.86 718.09,-328.33 718.09,-328.33 717.9,-328.38 717.52,-328.46 717.33,-328.5 717.33,-328.5 715.34,-328.94 715.34,-328.94 715.15,-328.98 714.77,-329.06 714.58,-329.09 714.58,-329.09 712.57,-329.49 712.57,-329.49 712.38,-329.52 711.99,-329.59 711.8,-329.63 711.8,-329.63 709.77,-329.98 709.77,-329.98 709.58,-330.01 709.2,-330.07 709,-330.1 709,-330.1 706.96,-330.41 706.96,-330.41 706.77,-330.44 706.38,-330.5 706.19,-330.52 706.19,-330.52 704.13,-330.79 704.13,-330.79 703.94,-330.82 703.55,-330.86 703.36,-330.88 703.36,-330.88 701.29,-331.11 701.29,-331.11 701.09,-331.13 700.71,-331.17 700.51,-331.18 700.51,-331.18 698.44,-331.36 698.44,-331.36 698.24,-331.38 697.86,-331.41 697.66,-331.42 697.66,-331.42 695.58,-331.56 695.58,-331.56 695.39,-331.57 695,-331.59 694.8,-331.6 694.8,-331.6 692.72,-331.69 692.72,-331.69 692.52,-331.7 692.14,-331.71 691.94,-331.72 691.94,-331.72 689.85,-331.76 689.85,-331.76 689.66,-331.77 689.27,-331.77 689.07,-331.77 689.07,-331.77 686.99,-331.77 686.99,-331.77 686.79,-331.77 686.4,-331.77 686.21,-331.76 686.21,-331.76 684.12,-331.72 684.12,-331.72 683.93,-331.71 683.54,-331.7 683.34,-331.69 683.34,-331.69 681.26,-331.6 681.26,-331.6 681.06,-331.59 680.68,-331.57 680.48,-331.56 680.48,-331.56 678.4,-331.42 678.4,-331.42 678.21,-331.41 677.82,-331.38 677.62,-331.36 677.62,-331.36 675.55,-331.18 675.55,-331.18 675.36,-331.17 674.97,-331.13 674.77,-331.11 674.77,-331.11 672.71,-330.88 672.71,-330.88 672.51,-330.86 672.13,-330.82 671.93,-330.79 671.93,-330.79 669.88,-330.52 669.88,-330.52 669.68,-330.5 669.3,-330.44 669.1,-330.41 669.1,-330.41 667.06,-330.1 667.06,-330.1 666.87,-330.07 666.48,-330.01 666.29,-329.98 666.29,-329.98 664.26,-329.63 664.26,-329.63 664.07,-329.59 663.69,-329.52 663.49,-329.49 663.49,-329.49 661.48,-329.09 661.48,-329.09 661.29,-329.06 660.91,-328.98 660.72,-328.94 660.72,-328.94 658.73,-328.5 658.73,-328.5 658.54,-328.46 658.16,-328.38 657.97,-328.33 657.97,-328.33 656.01,-327.86 656.01,-327.86 655.82,-327.82 655.44,-327.72 655.26,-327.67 655.26,-327.67 653.32,-327.17 653.32,-327.17 653.14,-327.12 652.76,-327.02 652.57,-326.97 652.57,-326.97 650.68,-326.43 650.68,-326.43 650.49,-326.37 650.12,-326.26 649.93,-326.21 649.93,-326.21 648.08,-325.64 648.08,-325.64 647.89,-325.58 647.52,-325.46 647.34,-325.4 647.34,-325.4 645.53,-324.8 645.53,-324.8 645.35,-324.74 644.98,-324.61 644.8,-324.55 644.8,-324.55 643.05,-323.92 643.05,-323.92 642.86,-323.86 642.5,-323.72 642.32,-323.65 642.32,-323.65 640.63,-323.01 640.63,-323.01 640.45,-322.94 640.08,-322.79 639.9,-322.72 639.9,-322.72 638.28,-322.05 638.28,-322.05 638.1,-321.98 637.75,-321.82 637.57,-321.74 637.57,-321.74 636.02,-321.06 636.02,-321.06 635.85,-320.98 635.49,-320.82 635.32,-320.73 635.32,-320.73 633.86,-320.04 633.86,-320.04 633.68,-319.95 633.33,-319.78 633.16,-319.69 633.16,-319.69 631.79,-318.99 631.79,-318.99 631.61,-318.9 631.27,-318.71 631.1,-318.62 631.1,-318.62 629.83,-317.91 629.83,-317.91 629.66,-317.81 629.32,-317.62 629.16,-317.51 629.16,-317.51 627.99,-316.81 627.99,-316.81 627.82,-316.7 627.49,-316.5 627.33,-316.39 627.33,-316.39 626.28,-315.69 626.28,-315.69 626.12,-315.58 625.8,-315.35 625.64,-315.24 625.64,-315.24 624.7,-314.55 624.7,-314.55 624.55,-314.43 624.24,-314.19 624.09,-314.07 624.09,-314.07 623.27,-313.4 623.27,-313.4 623.12,-313.28 622.83,-313.02 622.69,-312.88 622.69,-312.88 622,-312.24 622,-312.24 621.86,-312.11 621.58,-311.83 621.45,-311.69 621.45,-311.69 620.89,-311.07 620.89,-311.07 620.76,-310.93 620.51,-310.63 620.39,-310.48 620.39,-310.48 619.95,-309.91 619.95,-309.91 619.83,-309.75 619.61,-309.43 619.51,-309.26 619.51,-309.26 619.18,-308.74 619.18,-308.74 619.08,-308.57 618.9,-308.23 618.82,-308.05 618.82,-308.05 618.6,-307.57 618.6,-307.57 618.52,-307.39 618.39,-307.03 618.33,-306.84 618.33,-306.84 618.21,-306.4 618.21,-306.4 618.15,-306.21 618.08,-305.83 618.06,-305.64 618.06,-305.64 618.01,-305.24 618.01,-305.24 617.99,-305.04 617.98,-304.65 618,-304.46 618,-304.46 618.02,-304.07 618.02,-304.07 618.04,-303.88 618.1,-303.49 618.15,-303.31 618.15,-303.31 618.25,-302.91 618.25,-302.91 618.3,-302.72 618.43,-302.35 618.51,-302.18 618.51,-302.18 618.7,-301.75 618.7,-301.75 618.79,-301.57 618.98,-301.23 619.08,-301.07 619.08,-301.07 619.4,-300.61 619.4,-300.61 619.5,-300.44 619.74,-300.14 619.87,-299.99 619.87,-299.99 620.33,-299.48 620.33,-299.48 620.46,-299.34 620.73,-299.06 620.88,-298.94 620.88,-298.94 621.5,-298.39 621.5,-298.39 621.64,-298.26 621.95,-298.02 622.11,-297.9 622.11,-297.9 622.91,-297.33 622.91,-297.33 623.07,-297.21 623.39,-297 623.56,-296.9 623.56,-296.9 624.55,-296.3 624.55,-296.3 624.72,-296.2 625.06,-296.01 625.23,-295.92 625.23,-295.92 626.43,-295.31 626.43,-295.31 626.6,-295.22 626.95,-295.05 627.13,-294.98 627.13,-294.98 628.53,-294.36 628.53,-294.36 628.71,-294.28 629.07,-294.14 629.25,-294.07 629.25,-294.07 630.85,-293.46 630.85,-293.46 631.03,-293.39 631.4,-293.26 631.59,-293.2 631.59,-293.2 633.39,-292.6 633.39,-292.6 633.58,-292.54 633.95,-292.42 634.13,-292.37 634.13,-292.37 636.14,-291.79 636.14,-291.79 636.32,-291.73 636.7,-291.63 636.89,-291.58 636.89,-291.58 639.08,-291.02 639.08,-291.02 639.27,-290.98 639.65,-290.89 639.84,-290.84 639.84,-290.84 642.21,-290.31 642.21,-290.31 642.4,-290.27 642.79,-290.19 642.98,-290.15 642.98,-290.15 645.53,-289.65 645.53,-289.65 645.72,-289.62 646.1,-289.54 646.29,-289.51 646.29,-289.51 649,-289.05 649,-289.05 649.2,-289.01 649.58,-288.95 649.77,-288.92 649.77,-288.92 652.64,-288.5 652.64,-288.5 652.83,-288.47 653.22,-288.42 653.41,-288.39 653.41,-288.39 656.41,-288 656.41,-288 656.61,-287.98 656.99,-287.93 657.19,-287.91 657.19,-287.91 660.31,-287.57 660.31,-287.57 660.51,-287.55 660.89,-287.51 661.09,-287.49 661.09,-287.49 664.33,-287.19 664.33,-287.19 664.52,-287.18 664.91,-287.14 665.1,-287.13 665.1,-287.13 668.43,-286.88 668.43,-286.88 668.63,-286.87 669.02,-286.84 669.21,-286.83 669.21,-286.83 672.62,-286.63 672.62,-286.63 672.81,-286.61 673.2,-286.59 673.4,-286.59 673.4,-286.59 676.87,-286.43 676.87,-286.43 677.06,-286.42 677.45,-286.41 677.64,-286.4 677.64,-286.4 681.16,-286.3 681.16,-286.3 681.35,-286.3 681.74,-286.29 681.94,-286.29 681.94,-286.29 685.48,-286.23 685.48,-286.23 685.67,-286.23 686.06,-286.23 686.26,-286.23 686.26,-286.23 689.81,-286.23 689.81,-286.23 690,-286.23 690.39,-286.23 690.59,-286.23 690.59,-286.23 694.12,-286.29 694.12,-286.29 694.32,-286.29 694.71,-286.3 694.9,-286.3"/>
<text text-anchor="middle" x="688.03" y="-312.2" font-family="STKaiti" font-size="11.00">Ali/Tencent </text>
<text text-anchor="middle" x="688.03" y="-300.2" font-family="STKaiti" font-size="11.00">自学习模型 API</text>
</g>
<!-- b_url&#45;&gt;c1 -->
<g id="edge9" class="edge">
<title>b_url&#45;&gt;c1</title>
<path fill="none" stroke="black" d="M523.17,-329.53C549.27,-326.26 585.51,-321.72 617.28,-317.74"/>
<polygon fill="black" stroke="black" points="617.93,-321.19 627.41,-316.47 617.06,-314.24 617.93,-321.19"/>
</g>
<!-- b_taskid&#45;&gt;a2 -->
<g id="edge11" class="edge">
<title>b_taskid:w&#45;&gt;a2</title>
<path fill="none" stroke="black" d="M454.5,-262C405.83,-262 393.67,-261.83 345,-262 255.86,-262.31 151.01,-263.18 96.9,-263.66"/>
<polygon fill="black" stroke="black" points="96.75,-260.16 86.78,-263.75 96.81,-267.16 96.75,-260.16"/>
<text text-anchor="middle" x="384.5" y="-265" font-family="STKaiti" font-size="10.00">通知前端转录完成</text>
</g>
<!-- b_taskid&#45;&gt;b_query -->
<g id="edge2" class="edge">
<title>b_taskid&#45;&gt;b_query</title>
</g>
<!-- b_mysql&#45;&gt;b_train -->
<g id="edge19" class="edge">
<title>b_mysql&#45;&gt;b_train</title>
<path fill="none" stroke="black" d="M472.07,-203.33C465.31,-212.7 457.06,-224.36 450,-235 437.86,-253.29 441.76,-264.09 424,-277 401.73,-293.19 373.84,-303.03 347.26,-309.01"/>
<polygon fill="black" stroke="black" points="346.23,-305.65 337.15,-311.11 347.65,-312.5 346.23,-305.65"/>
</g>
<!-- s_label -->
<g id="node16" class="node">
<title>s_label</title>
<path fill="none" stroke="white" d="M705.53,-386C705.53,-386 670.53,-386 670.53,-386 664.53,-386 658.53,-380 658.53,-374 658.53,-374 658.53,-362 658.53,-362 658.53,-356 664.53,-350 670.53,-350 670.53,-350 705.53,-350 705.53,-350 711.53,-350 717.53,-356 717.53,-362 717.53,-362 717.53,-374 717.53,-374 717.53,-380 711.53,-386 705.53,-386"/>
<text text-anchor="middle" x="688.03" y="-364.6" font-family="Serif" font-size="13.00">Serving</text>
</g>
<!-- c1&#45;&gt;b_taskid -->
<g id="edge10" class="edge">
<title>c1:sw&#45;&gt;b_taskid</title>
<path fill="none" stroke="black" d="M667.03,-287C631,-250.97 568.74,-250.52 527.83,-255.05"/>
<polygon fill="black" stroke="black" points="527.15,-251.61 517.67,-256.32 528.02,-258.55 527.15,-251.61"/>
<text text-anchor="middle" x="570.5" y="-260" font-family="STKaiti" font-size="10.00">通知后端转录完成</text>
</g>
<!-- tmpdot&#45;&gt;b_url -->
<g id="edge8" class="edge">
<title>tmpdot&#45;&gt;b_url</title>
<path fill="none" stroke="black" d="M433.15,-360.92C433.86,-360.56 437,-358.94 441.42,-356.67"/>
<polygon fill="black" stroke="black" points="443.21,-359.69 450.5,-352 440.01,-353.46 443.21,-359.69"/>
</g>
</g>
</svg>
